<?xml version="1.0" encoding="UTF-8"?>
<svg height="823" version="1.1" width="835" xmlns="http://www.w3.org/2000/svg">
  <path
    d="M0 0 C2.32736807 -0.0030256 4.65473515 -0.00691712 6.98210049 -0.01159257 C13.3373327 -0.02182893 19.69250822 -0.01970189 26.04774499 -0.01541197 C32.21088256 -0.01221064 38.37401109 -0.02036786 44.53714404 -0.02717223 C58.68889827 -0.04236829 72.84063454 -0.04412175 86.99239522 -0.0416492 C97.92713246 -0.03981232 108.86186384 -0.04158441 119.79660034 -0.04587364 C121.37090105 -0.04647606 122.94520175 -0.04707726 124.51950246 -0.04767724 C126.89222641 -0.04858456 129.26495035 -0.04949323 131.63767429 -0.0504096 C153.68371733 -0.05883285 175.72975818 -0.06317926 197.77580261 -0.05900288 C199.02104758 -0.05876831 199.02104758 -0.05876831 200.29144902 -0.05852901 C204.49845625 -0.0577233 208.70546348 -0.05687753 212.9124707 -0.05601571 C213.7479019 -0.05584462 214.5833331 -0.05567353 215.4440804 -0.05549726 C217.13352427 -0.0551506 218.82296815 -0.05480207 220.51241203 -0.05445167 C246.78432964 -0.04909771 273.05621366 -0.05701824 299.328125 -0.07548523 C328.88871439 -0.09623987 358.44928298 -0.10692119 388.00988007 -0.10290974 C391.16708882 -0.10251444 394.32429758 -0.10215289 397.48150635 -0.10181236 C398.64746226 -0.10167627 398.64746226 -0.10167627 399.83697283 -0.10153742 C411.52965003 -0.10037541 423.2223061 -0.10698958 434.91497803 -0.11762428 C448.22814665 -0.12972099 461.541269 -0.13118421 474.85443836 -0.11883412 C481.6382798 -0.11282126 488.4220257 -0.11178602 495.20586205 -0.12383652 C501.4326057 -0.1347682 507.65918458 -0.13150621 513.88592076 -0.11757483 C516.12204713 -0.11494777 518.35818672 -0.11723068 520.59430003 -0.1253107 C563.51120298 -0.26945319 604.17912209 8.20285846 635.72460938 39.06440735 C654.83108768 58.12941423 666.19491994 82.55850712 671.92431641 108.69819641 C672.15103027 109.71393738 672.15103027 109.71393738 672.38232422 110.75019836 C675.68426173 127.01950783 675.96701876 143.4930841 675.93501282 160.0229187 C675.93803994 162.26467943 675.94193222 164.50643912 675.94660538 166.74819702 C675.95682202 172.85754761 675.95471982 178.96683911 675.95042479 185.07619441 C675.94820116 191.00471285 675.95538526 196.93321835 675.96218504 202.86173169 C675.97736723 216.47104492 675.97913603 230.08033944 675.97666202 243.68965936 C675.97482402 254.20576658 675.97659956 264.72186771 675.98088646 275.23797417 C675.98148888 276.75283822 675.98209008 278.26770227 675.98269006 279.78256632 C675.98359739 282.06579434 675.98450607 284.34902236 675.98542241 286.63225037 C675.99384346 307.8416516 675.99819357 329.05105056 675.99401569 350.26045322 C675.99385932 351.05881922 675.99370294 351.85718522 675.99354183 352.67974413 C675.99273614 356.72547421 675.99189036 360.77120428 675.99102852 364.81693435 C675.99085744 365.62031795 675.99068635 366.42370154 675.99051008 367.25143008 C675.99016342 368.87606481 675.98981489 370.50069954 675.98946449 372.12533427 C675.98411028 397.39060226 675.99203265 422.65583533 676.01049805 447.9210968 C676.03125786 476.35847051 676.04193309 504.7958226 676.03792256 533.23320431 C676.03752727 536.27103897 676.03716571 539.30887363 676.03682518 542.3467083 C676.03673445 543.09460565 676.03664372 543.84250301 676.03655024 544.61306392 C676.03538882 555.85734273 676.04199774 567.10159956 676.0526371 578.34587288 C676.06474017 591.14952362 676.06618975 603.95312625 676.05384693 616.75677777 C676.0478388 623.27949046 676.04678618 629.8021285 676.05884933 636.32483673 C676.06979642 642.31408417 676.06650126 648.3031605 676.05258765 654.29240023 C676.04996475 656.44100201 676.05222992 658.5896176 676.06032351 660.73820574 C676.21010903 703.52485004 667.90331335 745.96086062 636.79931641 777.32319641 C635.42810982 778.639659 634.05309056 779.9521617 632.67431641 781.26069641 C631.89443359 782.0689386 631.11455078 782.87718079 630.31103516 783.70991516 C596.75944552 816.1679715 549.47123842 819.43944204 505.46846008 819.38768005 C503.29937104 819.38883514 501.13028219 819.39042526 498.96119374 819.3924073 C493.05741291 819.39654748 487.15364842 819.39453415 481.24986756 819.39142108 C474.86045038 819.38914532 468.47103589 819.39265742 462.08161926 819.395401 C450.30625854 819.39957919 438.53090358 819.39923332 426.75554258 819.39648953 C415.87119417 819.39396608 404.98684765 819.39332093 394.10249901 819.39451218 C393.01617577 819.39462675 393.01617577 819.39462675 391.9079066 819.39474365 C388.96743961 819.39505503 386.02697262 819.39537343 383.08650564 819.39570341 C355.54158083 819.39875755 327.9966593 819.39599698 300.451735 819.39060651 C276.03219333 819.38586398 251.61265687 819.38628399 227.19311523 819.3910675 C199.70356151 819.39643451 172.21401067 819.39853837 144.72445649 819.39545524 C141.78804187 819.39513457 138.85162725 819.39482173 135.91521263 819.39451218 C135.19229106 819.3944331 134.46936949 819.39435402 133.72454121 819.39427255 C122.85613268 819.39313992 111.98772625 819.39445632 101.11931801 819.39699173 C88.74496837 819.39986421 76.37062575 819.39901308 63.99627671 819.39371099 C57.69243258 819.39109825 51.38859898 819.39002733 45.08475494 819.39336014 C39.29673132 819.39637373 33.50872784 819.39464742 27.72070601 819.38938259 C25.64415696 819.38827971 23.56760615 819.38880121 21.49105827 819.39125837 C10.47825453 819.40327411 -0.51332871 819.24668141 -11.518857 818.82697868 C-12.524697 818.78980476 -13.530537 818.75263084 -14.56685699 818.71433044 C-47.96152011 817.31554329 -81.6284474 808.633912 -107.32568359 786.26069641 C-108.13392578 785.5736261 -108.94216797 784.88655579 -109.77490234 784.17866516 C-134.97431177 762.22313576 -148.21396518 734.46490357 -153.63818359 701.69819641 C-153.79770508 700.7430011 -153.95722656 699.78780579 -154.12158203 698.80366516 C-156.634232 682.20797267 -156.4727473 665.31527458 -156.45266724 648.57250977 C-156.45382219 646.4475185 -156.45541221 644.32252743 -156.45739448 642.19753677 C-156.46153654 636.41112194 -156.45952046 630.62472379 -156.45640826 624.83830893 C-156.45413331 618.57708543 -156.45764419 612.31586467 -156.46038818 606.05464172 C-156.46456701 594.5151099 -156.46422022 582.97558543 -156.46147672 571.43605365 C-156.45895382 560.77101613 -156.45830786 550.10598053 -156.45949936 539.44094276 C-156.45961394 538.37673807 -156.45961394 538.37673807 -156.45973083 537.2910343 C-156.46004221 534.4104987 -156.46036061 531.5299631 -156.46069059 528.6494275 C-156.46374488 501.66503328 -156.4609838 474.68064241 -156.4555937 447.69624871 C-156.45085016 423.76696451 -156.45127197 399.83768564 -156.45605469 375.90840149 C-156.46141982 348.97555978 -156.46352667 322.04272101 -156.46044242 295.10987884 C-156.46012175 292.23388501 -156.4598089 289.35789118 -156.45949936 286.48189735 C-156.45942028 285.77384167 -156.4593412 285.06578599 -156.45925973 284.33627407 C-156.45812643 273.68482122 -156.45944474 263.03337051 -156.46197891 252.38191795 C-156.46484921 240.25778704 -156.46400462 228.13366399 -156.45869817 216.00953349 C-156.45608276 209.83163446 -156.45501919 203.65374618 -156.45834732 197.47584724 C-156.46135519 191.80636762 -156.45964371 186.1369086 -156.45436977 180.46743081 C-156.45326454 178.43060889 -156.45379392 176.39378518 -156.45624556 174.35696443 C-156.47656225 156.05529182 -156.43684913 137.62622818 -153.57568359 119.51069641 C-153.40230469 118.3809137 -153.22892578 117.25113098 -153.05029297 116.08711243 C-151.51756106 106.57049917 -149.33724549 97.41271567 -146.32568359 88.26069641 C-146.03177734 87.36350891 -145.73787109 86.46632141 -145.43505859 85.54194641 C-139.14669337 68.39185945 -128.7732742 53.46203385 -116.32568359 40.26069641 C-115.66310547 39.5220636 -115.00052734 38.78343079 -114.31787109 38.02241516 C-97.85165326 20.39792726 -73.21904544 9.03219994 -49.88818359 4.01069641 C-49.18653076 3.85955383 -48.48487793 3.70841125 -47.76196289 3.5526886 C-31.85707749 0.39982397 -16.15078775 -0.02997465 0 0 Z "
    fill="#3D3979" transform="translate(157.32568359375,3.7393035888671875)"/>
  <path
    d="M0 0 C2.32736807 -0.0030256 4.65473515 -0.00691712 6.98210049 -0.01159257 C13.3373327 -0.02182893 19.69250822 -0.01970189 26.04774499 -0.01541197 C32.21088256 -0.01221064 38.37401109 -0.02036786 44.53714404 -0.02717223 C58.68889827 -0.04236829 72.84063454 -0.04412175 86.99239522 -0.0416492 C97.92713246 -0.03981232 108.86186384 -0.04158441 119.79660034 -0.04587364 C121.37090105 -0.04647606 122.94520175 -0.04707726 124.51950246 -0.04767724 C126.89222641 -0.04858456 129.26495035 -0.04949323 131.63767429 -0.0504096 C153.68371733 -0.05883285 175.72975818 -0.06317926 197.77580261 -0.05900288 C199.02104758 -0.05876831 199.02104758 -0.05876831 200.29144902 -0.05852901 C204.49845625 -0.0577233 208.70546348 -0.05687753 212.9124707 -0.05601571 C213.7479019 -0.05584462 214.5833331 -0.05567353 215.4440804 -0.05549726 C217.13352427 -0.0551506 218.82296815 -0.05480207 220.51241203 -0.05445167 C246.78432964 -0.04909771 273.05621366 -0.05701824 299.328125 -0.07548523 C328.88871439 -0.09623987 358.44928298 -0.10692119 388.00988007 -0.10290974 C391.16708882 -0.10251444 394.32429758 -0.10215289 397.48150635 -0.10181236 C398.64746226 -0.10167627 398.64746226 -0.10167627 399.83697283 -0.10153742 C411.52965003 -0.10037541 423.2223061 -0.10698958 434.91497803 -0.11762428 C448.22814665 -0.12972099 461.541269 -0.13118421 474.85443836 -0.11883412 C481.6382798 -0.11282126 488.4220257 -0.11178602 495.20586205 -0.12383652 C501.4326057 -0.1347682 507.65918458 -0.13150621 513.88592076 -0.11757483 C516.12204713 -0.11494777 518.35818672 -0.11723068 520.59430003 -0.1253107 C563.51120298 -0.26945319 604.17912209 8.20285846 635.72460938 39.06440735 C654.83108768 58.12941423 666.19491994 82.55850712 671.92431641 108.69819641 C672.15103027 109.71393738 672.15103027 109.71393738 672.38232422 110.75019836 C675.68426173 127.01950783 675.96701876 143.4930841 675.93501282 160.0229187 C675.93803994 162.26467943 675.94193222 164.50643912 675.94660538 166.74819702 C675.95682202 172.85754761 675.95471982 178.96683911 675.95042479 185.07619441 C675.94820116 191.00471285 675.95538526 196.93321835 675.96218504 202.86173169 C675.97736723 216.47104492 675.97913603 230.08033944 675.97666202 243.68965936 C675.97482402 254.20576658 675.97659956 264.72186771 675.98088646 275.23797417 C675.98148888 276.75283822 675.98209008 278.26770227 675.98269006 279.78256632 C675.98359739 282.06579434 675.98450607 284.34902236 675.98542241 286.63225037 C675.99384346 307.8416516 675.99819357 329.05105056 675.99401569 350.26045322 C675.99385932 351.05881922 675.99370294 351.85718522 675.99354183 352.67974413 C675.99273614 356.72547421 675.99189036 360.77120428 675.99102852 364.81693435 C675.99085744 365.62031795 675.99068635 366.42370154 675.99051008 367.25143008 C675.99016342 368.87606481 675.98981489 370.50069954 675.98946449 372.12533427 C675.98411028 397.39060226 675.99203265 422.65583533 676.01049805 447.9210968 C676.03125786 476.35847051 676.04193309 504.7958226 676.03792256 533.23320431 C676.03752727 536.27103897 676.03716571 539.30887363 676.03682518 542.3467083 C676.03673445 543.09460565 676.03664372 543.84250301 676.03655024 544.61306392 C676.03538882 555.85734273 676.04199774 567.10159956 676.0526371 578.34587288 C676.06474017 591.14952362 676.06618975 603.95312625 676.05384693 616.75677777 C676.0478388 623.27949046 676.04678618 629.8021285 676.05884933 636.32483673 C676.06979642 642.31408417 676.06650126 648.3031605 676.05258765 654.29240023 C676.04996475 656.44100201 676.05222992 658.5896176 676.06032351 660.73820574 C676.21010903 703.52485004 667.90331335 745.96086062 636.79931641 777.32319641 C635.42810982 778.639659 634.05309056 779.9521617 632.67431641 781.26069641 C631.89443359 782.0689386 631.11455078 782.87718079 630.31103516 783.70991516 C607.02164166 806.24024694 570.52750486 818.92043755 538.50244141 818.39741516 C529.88970756 818.08981752 521.28145004 817.69644197 512.67431641 817.26069641 C513.59098307 815.88569641 514.50764974 814.51069641 515.42431641 813.13569641 C515.97168457 812.31085754 516.51905273 811.48601868 517.08300781 810.63618469 C518.32470377 808.78259438 519.59882052 806.95071002 520.88525391 805.12788391 C522.86102225 801.96147787 524.08236745 798.91092274 525.29931641 795.38569641 C525.90646484 793.6570636 525.90646484 793.6570636 526.52587891 791.89350891 C529.69007714 781.88431041 530.25580848 772.56707575 530.62158203 762.08686829 C530.68667969 760.86934875 530.75177734 759.65182922 530.81884766 758.39741516 C530.88616089 756.73778748 530.88616089 756.73778748 530.95483398 755.04463196 C531.67431641 752.26069641 531.67431641 752.26069641 534.11450195 750.54512024 C535.38161011 749.90933044 535.38161011 749.90933044 536.67431641 749.26069641 C543.81187645 738.67741773 537.82074061 720.85138713 535.67431641 709.26069641 C530.68434771 684.70327917 522.63128503 660.78280476 511.67431641 638.26069641 C511.33013672 637.54349426 510.98595703 636.82629211 510.63134766 636.08735657 C494.62647148 602.81285108 473.39463795 574.32545769 443.35327148 552.57246399 C441.65310938 551.24412736 440.16642132 549.81654946 438.67431641 548.26069641 C439.71587891 547.67804016 440.75744141 547.09538391 441.83056641 546.49507141 C477.73428471 526.08784213 504.29479325 497.90112421 516.71728516 457.95600891 C518.48318054 451.1374904 519.71178238 444.23553241 520.67431641 437.26069641 C520.77075439 436.57491516 520.86719238 435.88913391 520.96655273 435.18257141 C525.21216823 401.67131964 520.4270292 361.07199824 505.36181641 330.53804016 C504.67431641 328.26069641 504.67431641 328.26069641 505.35791016 326.32710266 C505.79232422 325.6451886 506.22673828 324.96327454 506.67431641 324.26069641 C507.69802093 322.26216451 508.71863015 320.26204532 509.73681641 318.26069641 C510.52765625 316.71382141 510.52765625 316.71382141 511.33447266 315.13569641 C514.53784992 308.26197727 514.90969968 300.41324522 512.74462891 293.13569641 C512.01912079 291.25437882 511.25772009 289.38627859 510.45166016 287.53804016 C509.67431641 285.26069641 509.67431641 285.26069641 510.67431641 282.26069641 C512.49462891 281.12007141 512.49462891 281.12007141 514.79931641 280.01069641 C523.80187472 275.21601114 528.15210776 268.77109058 531.75634766 259.46772766 C534.17941669 251.00245242 533.72068665 241.4358663 529.92822266 233.46772766 C524.8891659 224.59835985 518.69027753 218.79427051 508.92431641 215.38569641 C502.90854043 213.76314485 496.85468102 213.99914493 490.67431641 214.26069641 C491.15185518 207.36060723 492.71967604 201.93016178 495.36181641 195.57319641 C502.59306435 177.31315835 506.78757607 158.65512625 509.67431641 139.26069641 C509.7788916 138.58724182 509.8834668 137.91378723 509.99121094 137.21992493 C513.72371761 111.01559139 510.16597045 81.35657599 494.64306641 59.38569641 C486.20817376 48.45597636 474.23310654 40.12196291 460.43994141 37.54194641 C438.77928914 35.33916821 420.52688889 40.8565627 403.25634766 54.13960266 C358.52325892 90.8870568 338.67203325 152.46614634 332.67431641 208.26069641 C331.86736328 208.09054016 331.06041016 207.92038391 330.22900391 207.74507141 C326.63850766 207.02849679 323.04408216 206.37116025 319.43701172 205.74458313 C317.55946147 205.41572977 315.68382424 205.07580229 313.81005859 204.72602844 C295.95143656 201.47510733 278.35845365 200.85596114 260.23681641 200.82319641 C259.14300659 200.81720428 258.04919678 200.81121216 256.92224121 200.80503845 C235.72464988 200.72776922 215.34712348 202.99013947 194.73461914 207.94111633 C192.03508843 208.35984909 189.40114116 208.30831493 186.67431641 208.26069641 C186.49425049 207.08603821 186.49425049 207.08603821 186.31054688 205.88764954 C178.78035179 157.34870623 165.2383893 108.36626546 132.67431641 70.26069641 C131.92794922 69.36866516 131.18158203 68.47663391 130.41259766 67.55757141 C116.99565696 52.08811965 98.16588075 38.94756687 77.27636719 37.04194641 C59.7705648 35.96321412 45.61194027 39.61430275 31.98681641 51.01069641 C15.77895229 66.10569661 9.47825982 89.29983451 8.56494141 110.84028625 C7.16648983 160.52901876 22.11548539 218.52536999 53.54272461 257.94306946 C54.67431641 260.26069641 54.67431641 260.26069641 53.97143555 262.91157532 C52.49923175 265.57777989 50.8112224 267.6599297 48.79931641 269.94819641 C19.50918079 305.02113569 -2.4260097 354.9732718 -2.49365234 401.14350891 C-2.49698074 401.96084503 -2.50030914 402.77818115 -2.5037384 403.62028503 C-2.50876567 405.33960922 -2.51114804 407.05894301 -2.51098633 408.77827454 C-2.5131607 411.35852365 -2.53132835 413.93833579 -2.55029297 416.51850891 C-2.598907 430.2648905 -1.59051856 443.44323842 2.36181641 456.69819641 C2.62309326 457.58652161 2.88437012 458.4748468 3.15356445 459.39009094 C8.63480828 477.44042185 17.27221551 493.98385934 29.67431641 508.26069641 C30.36009766 509.06764954 31.04587891 509.87460266 31.75244141 510.70600891 C36.83223831 516.5349845 42.32378914 521.76205166 48.07275391 526.91304016 C50.00213179 528.6541154 51.84982571 530.41455695 53.67431641 532.26069641 C52.39582321 532.26434204 51.11733002 532.26798767 49.8000946 532.27174377 C37.72141492 532.30876693 25.64298846 532.36661979 13.56450176 532.44459915 C7.35557217 532.48402213 1.14678332 532.51623618 -5.06225586 532.5316925 C-11.06005891 532.54689293 -17.05747492 532.58139925 -23.05510521 532.62900543 C-25.33746148 532.64378422 -27.61987303 532.6517354 -29.90227699 532.65258026 C-33.11194213 532.65496216 -36.32054821 532.68214117 -39.5300293 532.71479797 C-40.92942245 532.70725243 -40.92942245 532.70725243 -42.35708618 532.69955444 C-52.40987121 532.85666919 -62.09121941 536.07361955 -69.32568359 543.26069641 C-75.18912827 550.62200796 -76.4748719 555.84374757 -76.47285461 565.17832947 C-76.4765313 566.08940724 -76.48020799 567.00048501 -76.48399609 567.9391712 C-76.49502905 570.99898867 -76.49887613 574.05877218 -76.50268555 577.11860657 C-76.50895051 579.30984098 -76.51559734 581.50107433 -76.52259827 583.69230652 C-76.5436379 590.89478312 -76.55400088 598.09725994 -76.56396484 605.29975891 C-76.5680125 607.77970262 -76.57212942 610.25964621 -76.57631493 612.73958969 C-76.59427393 623.7228204 -76.60865221 634.70604651 -76.61649133 645.68928929 C-76.61792977 647.69828048 -76.61938115 649.70727165 -76.62084961 651.71626282 C-76.62157522 652.71378172 -76.62157522 652.71378172 -76.62231549 653.73145251 C-76.63061103 664.49772891 -76.65594074 675.26389404 -76.68843029 686.03012188 C-76.72154217 697.09312159 -76.7391837 708.15606194 -76.74270791 719.21911085 C-76.74505765 725.42673825 -76.75400858 731.63418975 -76.77916908 737.84177017 C-76.80246692 743.68422241 -76.80667594 749.52638312 -76.7964077 755.36886978 C-76.79591264 757.50938385 -76.80222409 759.64991235 -76.81596375 761.79038239 C-76.83371777 764.72098891 -76.82655897 767.65055316 -76.81343079 770.5811615 C-76.82440003 771.42087702 -76.83536928 772.26059255 -76.84667093 773.125754 C-76.75784182 781.3837683 -74.05721622 789.64904532 -68.21295166 795.67301941 C-56.79756122 805.27629368 -44.11557439 804.12627247 -29.96630859 804.06538391 C-27.60689951 804.07664713 -25.24750163 804.09053344 -22.88812256 804.10691833 C-16.71332154 804.14282004 -10.53901705 804.14334697 -4.36413574 804.13624573 C1.95085422 804.13533007 8.26566084 804.16823051 14.58056641 804.19819641 C26.94520179 804.25193079 39.30957708 804.26825584 51.67431641 804.26069641 C51.34431641 808.55069641 51.01431641 812.84069641 50.67431641 817.26069641 C41.42339962 817.46132209 32.17249126 817.64672198 22.92079067 817.80728436 C18.6221646 817.88245419 14.32384642 817.96360115 10.02563477 818.05976868 C-32.03465939 818.99058731 -74.1674996 815.12976208 -107.32568359 786.26069641 C-108.13392578 785.5736261 -108.94216797 784.88655579 -109.77490234 784.17866516 C-134.97431177 762.22313576 -148.21396518 734.46490357 -153.63818359 701.69819641 C-153.79770508 700.7430011 -153.95722656 699.78780579 -154.12158203 698.80366516 C-156.634232 682.20797267 -156.4727473 665.31527458 -156.45266724 648.57250977 C-156.45382219 646.4475185 -156.45541221 644.32252743 -156.45739448 642.19753677 C-156.46153654 636.41112194 -156.45952046 630.62472379 -156.45640826 624.83830893 C-156.45413331 618.57708543 -156.45764419 612.31586467 -156.46038818 606.05464172 C-156.46456701 594.5151099 -156.46422022 582.97558543 -156.46147672 571.43605365 C-156.45895382 560.77101613 -156.45830786 550.10598053 -156.45949936 539.44094276 C-156.45961394 538.37673807 -156.45961394 538.37673807 -156.45973083 537.2910343 C-156.46004221 534.4104987 -156.46036061 531.5299631 -156.46069059 528.6494275 C-156.46374488 501.66503328 -156.4609838 474.68064241 -156.4555937 447.69624871 C-156.45085016 423.76696451 -156.45127197 399.83768564 -156.45605469 375.90840149 C-156.46141982 348.97555978 -156.46352667 322.04272101 -156.46044242 295.10987884 C-156.46012175 292.23388501 -156.4598089 289.35789118 -156.45949936 286.48189735 C-156.45942028 285.77384167 -156.4593412 285.06578599 -156.45925973 284.33627407 C-156.45812643 273.68482122 -156.45944474 263.03337051 -156.46197891 252.38191795 C-156.46484921 240.25778704 -156.46400462 228.13366399 -156.45869817 216.00953349 C-156.45608276 209.83163446 -156.45501919 203.65374618 -156.45834732 197.47584724 C-156.46135519 191.80636762 -156.45964371 186.1369086 -156.45436977 180.46743081 C-156.45326454 178.43060889 -156.45379392 176.39378518 -156.45624556 174.35696443 C-156.47656225 156.05529182 -156.43684913 137.62622818 -153.57568359 119.51069641 C-153.40230469 118.3809137 -153.22892578 117.25113098 -153.05029297 116.08711243 C-151.51756106 106.57049917 -149.33724549 97.41271567 -146.32568359 88.26069641 C-146.03177734 87.36350891 -145.73787109 86.46632141 -145.43505859 85.54194641 C-139.14669337 68.39185945 -128.7732742 53.46203385 -116.32568359 40.26069641 C-115.66310547 39.5220636 -115.00052734 38.78343079 -114.31787109 38.02241516 C-97.85165326 20.39792726 -73.21904544 9.03219994 -49.88818359 4.01069641 C-49.18653076 3.85955383 -48.48487793 3.70841125 -47.76196289 3.5526886 C-31.85707749 0.39982397 -16.15078775 -0.02997465 0 0 Z "
    fill="#936CD4" transform="translate(157.32568359375,3.7393035888671875)"/>
  <path
    d="M0 0 C5.47446514 3.8774464 10.25512644 8.36187524 14.97265625 13.10546875 C15.83890625 13.97171875 16.70515625 14.83796875 17.59765625 15.73046875 C50.48094025 50.25791695 65.8074086 104.29590107 69.86035156 150.60717773 C70.38748399 155.90877017 70.89440009 159.29284614 74.97265625 163.10546875 C81.58332814 166.4108047 92.7828517 161.84886268 99.53515625 160.23046875 C140.27231212 151.00061206 186.05366432 149.95136003 226.54541016 161.12353516 C233.90483615 163.11151968 241.56620151 164.574287 248.97265625 162.10546875 C251.33020574 155.76172447 251.93059578 148.5827948 252.8046875 141.89453125 C258.62472195 97.36760827 273.30643811 53.30201464 301.97265625 18.10546875 C302.56691406 17.35652344 303.16117188 16.60757813 303.7734375 15.8359375 C312.68241081 5.05586717 326.78773275 -6.56845302 340.97265625 -8.89453125 C353.78716297 -9.90853772 364.88559169 -8.97617487 375.203125 -0.5078125 C386.82413278 10.08705773 392.12840014 24.94347031 393.20019531 40.38330078 C394.38278161 67.57162924 390.93471541 95.63724793 380.97265625 121.10546875 C377.25574464 119.38742961 374.33520208 117.10753015 371.16796875 114.54296875 C366.44528404 111.45053464 361.64183423 110.81990822 356.09765625 110.48046875 C354.94523437 110.40570313 353.7928125 110.3309375 352.60546875 110.25390625 C351.30222656 110.18042969 351.30222656 110.18042969 349.97265625 110.10546875 C350.04121826 109.50903564 350.10978027 108.91260254 350.18041992 108.2980957 C353.02338113 84.54499403 353.02338113 84.54499403 345.27734375 62.76953125 C341.91890562 59.32951163 338.91867805 57.65681945 334.09765625 57.29296875 C325.95282714 57.95403451 320.00425361 62.7308256 314.47265625 68.41796875 C295.93360357 90.32478585 287.00432436 119.931685 282.97192383 147.81835938 C281.9488433 154.18754176 280.66742118 158.55353306 276.38037109 163.45581055 C271.32100896 169.38472312 271.39498137 176.81066947 271.55859375 184.27734375 C272.49518242 192.93637107 276.22280952 201.41527538 282.97265625 207.10546875 C286.82732236 209.7188017 290.80844395 212.0233626 294.97265625 214.10546875 C293.90793917 217.3815213 292.80089711 220.47541151 291.34765625 223.60546875 C288.14396996 232.19791967 289.06878798 242.24216866 292.59765625 250.57421875 C297.50522921 259.60861443 304.48567239 264.44153015 313.97265625 268.10546875 C324.62988125 270.7297704 334.03184456 268.58523808 343.41015625 263.10546875 C346.27934772 261.33697834 348.68103429 259.5813047 350.97265625 257.10546875 C353.97265625 258.10546875 353.97265625 258.10546875 356.16015625 260.35546875 C364.03171029 268.05209937 372.60479852 271.27095393 383.53515625 271.29296875 C385.68136972 271.24527512 387.82749448 271.18785761 389.97265625 271.10546875 C405.31398368 314.52777233 413.61562421 362.8544184 392.97265625 406.19921875 C386.66227781 418.79463274 378.85664741 429.12471124 368.97265625 439.10546875 C368.30878906 439.82992188 367.64492188 440.554375 366.9609375 441.30078125 C328.41029625 482.61101287 261.26167646 494.15793382 207.72265625 497.23046875 C207.00543396 497.27182953 206.28821167 497.31319031 205.54925537 497.35580444 C101.47556175 503.11866469 101.47556175 503.11866469 64.97265625 489.10546875 C63.5546875 487.3359375 63.5546875 487.3359375 62.78515625 485.29296875 C59.75770278 478.27535695 55.69572332 474.55573909 48.97265625 471.10546875 C41.93294476 468.32543534 35.49445691 467.72787832 27.98828125 467.875 C25.89713637 467.87709963 23.80598955 467.87770369 21.71484375 467.87695312 C18.47170805 467.89139208 15.23004161 467.9178467 11.98730469 467.97143555 C-1.95277946 468.17182161 -11.71041629 467.73788336 -23.02734375 459.10546875 C-23.81383301 458.57058838 -24.60032227 458.03570801 -25.41064453 457.48461914 C-27.39928602 456.12498102 -29.31023742 454.70481379 -31.21484375 453.23046875 C-31.88136963 452.7207251 -32.54789551 452.21098145 -33.23461914 451.68579102 C-59.98726411 430.98414776 -78.21653848 402.32130648 -83.40234375 368.66796875 C-83.67538664 365.80245542 -83.88709912 362.97738581 -84.02734375 360.10546875 C-84.07648926 359.10467285 -84.12563477 358.10387695 -84.17626953 357.07275391 C-85.21660513 331.45961686 -82.07699587 306.16836863 -73.02734375 282.10546875 C-72.72957031 281.29464844 -72.43179688 280.48382813 -72.125 279.6484375 C-62.82451941 254.52556254 -49.22244819 231.2975129 -31.44140625 211.1796875 C-30.62414062 210.24769531 -29.806875 209.31570313 -28.96484375 208.35546875 C-27.86462891 207.15664063 -27.86462891 207.15664063 -26.7421875 205.93359375 C-24.37998199 202.03783797 -23.72419033 198.64648462 -24.02734375 194.10546875 C-24.92586815 191.28798521 -26.31430714 188.96338416 -27.90234375 186.48046875 C-28.31218506 185.79662109 -28.72202637 185.11277344 -29.14428711 184.40820312 C-30.41704096 182.29318927 -31.71936086 180.19883524 -33.02734375 178.10546875 C-34.55703939 175.61081059 -36.07574454 173.10961968 -37.58984375 170.60546875 C-38.14828979 169.68338623 -38.14828979 169.68338623 -38.71801758 168.74267578 C-46.45305282 155.83804462 -52.53483239 142.09200809 -58.02734375 128.10546875 C-58.30320313 127.40824707 -58.5790625 126.71102539 -58.86328125 125.99267578 C-67.61490001 103.37169091 -71.25356669 78.61907614 -71.27734375 54.48046875 C-71.27835083 53.77025574 -71.27935791 53.06004272 -71.28039551 52.32830811 C-71.27047216 41.9861392 -70.97476676 32.09608442 -68.02734375 22.10546875 C-67.76050781 21.18894531 -67.49367187 20.27242187 -67.21875 19.328125 C-63.38871854 8.28061202 -56.12662108 -0.15853393 -46.02734375 -5.89453125 C-45.41632813 -6.25417969 -44.8053125 -6.61382812 -44.17578125 -6.984375 C-30.24838621 -13.6413017 -12.10493817 -7.47986298 0 0 Z "
    fill="#FDFAF2" transform="translate(256.02734375,68.89453125)"/>
  <path
    d="M0 0 C1.13580715 -0.0083016 1.13580715 -0.0083016 2.2945599 -0.0167709 C4.81576773 -0.03031539 7.33597488 -0.01544277 9.85716248 -0.00050354 C11.67110106 -0.00428895 13.48503676 -0.00979083 15.29896545 -0.01687622 C20.21420965 -0.03081809 25.12910331 -0.01967036 30.04432797 -0.00316501 C35.19181663 0.01070195 40.33928528 0.00422362 45.48678589 0.0007019 C54.12934508 -0.00199867 62.77176527 0.01146312 71.41429138 0.03465271 C81.40332243 0.06126986 91.39212121 0.06300628 101.38117558 0.05126435 C110.9957848 0.04048246 120.61031008 0.04667633 130.22491264 0.06081963 C134.31449813 0.066575 138.4040221 0.06650028 142.49360847 0.06175423 C147.30931255 0.05697925 152.1247625 0.06710777 156.94041824 0.08870888 C158.70687058 0.09426949 160.47334737 0.0947487 162.23980141 0.08975601 C164.65266186 0.08379193 167.06474828 0.09632925 169.47753906 0.11352539 C170.17511261 0.10751535 170.87268616 0.1015053 171.5913983 0.09531313 C177.83810598 0.17616771 181.47364102 1.9215761 186.01101589 6.13362122 C188.95999999 9.98206766 188.87140203 13.68233769 188.8034668 18.3825531 C188.81056118 19.26549356 188.81765557 20.14843403 188.82496494 21.05813026 C188.84253967 24.0109549 188.82444272 26.96246233 188.80638123 29.91526794 C188.81152023 32.0344757 188.81880136 34.15367918 188.82806396 36.27287292 C188.84658834 42.02496396 188.83363253 47.77659184 188.81397367 53.52866364 C188.79759461 59.54767399 188.80639903 65.56665485 188.81149292 71.5856781 C188.81601469 81.69366356 188.80013871 91.80146402 188.77220154 101.90940857 C188.7401494 113.59631572 188.74016519 125.28288918 188.75741631 136.96982002 C188.77327888 148.21134247 188.76654952 159.45274255 188.74947929 170.69425964 C188.74260589 175.47883866 188.74364427 180.26331969 188.75102425 185.04789734 C188.7586841 190.68194905 188.74657031 196.31562092 188.71917534 201.94960785 C188.71228735 204.0176048 188.71219795 206.0856372 188.71939087 208.15363312 C188.72807703 210.97613223 188.71214343 213.79745688 188.68994141 216.61985779 C188.69818217 217.43873285 188.70642294 218.25760792 188.71491343 219.10129738 C188.63856618 224.35798667 187.61397703 227.30570609 184.17527771 231.50120544 C179.69569757 235.43780617 175.6249909 235.64873877 169.87626648 235.64164734 C168.75276956 235.64610402 168.75276956 235.64610402 167.60657573 235.65065074 C165.08942609 235.65934263 162.57232399 235.66084641 160.05516052 235.66233826 C158.25328978 235.66696612 156.45142001 235.67199073 154.64955139 235.67738342 C149.74858926 235.6905133 144.84764083 235.69695363 139.94666386 235.70139408 C136.88501615 235.70432412 133.8233722 235.70842881 130.76172638 235.71289825 C121.18344491 235.7265753 111.60517201 235.7362407 102.02688146 235.74010015 C90.96868854 235.74458028 79.91061928 235.76212526 68.85246396 235.79110074 C60.30629003 235.81271699 51.76015089 235.82280441 43.21394992 235.82414126 C38.10916567 235.82518941 33.00449761 235.83109932 27.89974213 235.84896088 C23.09643861 235.86544032 18.29333865 235.86759765 13.49001694 235.85882187 C11.72881144 235.8580514 9.96759501 235.86239546 8.20641708 235.87228012 C5.79811081 235.88500205 3.39052517 235.87912179 0.98222351 235.86869812 C0.28872527 235.87675452 -0.40477296 235.88481093 -1.1192863 235.89311147 C-5.98702754 235.84399036 -9.59161664 234.90454313 -13.82472229 232.50120544 C-18.18167282 227.73964961 -18.39743185 223.70529414 -18.32592773 217.57516479 C-18.33146213 216.68743521 -18.33699653 215.79970563 -18.34269863 214.88507515 C-18.35629067 211.91625596 -18.34134371 208.94827955 -18.32643127 205.97947693 C-18.33021494 203.84879703 -18.33571537 201.71811959 -18.34280396 199.58744812 C-18.35676865 193.80448972 -18.34558185 188.0218285 -18.32909274 182.23888659 C-18.31524669 176.18871496 -18.32170175 170.13856066 -18.32522583 164.08837891 C-18.32792809 153.92914538 -18.31445019 143.77003 -18.29127502 133.61082458 C-18.26465811 121.86145756 -18.26292044 110.11228799 -18.27466339 98.36290115 C-18.28543776 87.06372704 -18.27925721 75.76462444 -18.26510811 64.46545601 C-18.25934609 59.65494664 -18.25943268 54.84448956 -18.26417351 50.03397942 C-18.2689414 44.37126595 -18.25884922 38.70876906 -18.23721886 33.0460968 C-18.23164855 30.96638787 -18.23118791 28.88665813 -18.23617172 26.80694771 C-18.24211583 23.97114462 -18.22963607 21.13600566 -18.21240234 18.30026245 C-18.21841239 17.4745836 -18.22442243 16.64890474 -18.2306146 15.79820532 C-18.1801268 11.23900622 -17.93829399 8.08148489 -14.82472229 4.50120544 C-9.87485856 0.97090591 -6.09482808 -0.08418993 0 0 Z "
    fill="#FDFAF1" transform="translate(115.82472229003906,554.4987945556641)"/>
  <path
    d="M0 0 C2.13382531 1.40863396 4.21612136 2.87166826 6.29101562 4.36572266 C7.03915527 4.89891113 7.78729492 5.43209961 8.55810547 5.98144531 C13.98477484 9.9103773 18.96336356 14.08814592 23.82226562 18.70556641 C25.73281362 20.51469833 27.67438696 22.1645882 29.72851562 23.80322266 C33.9982125 27.44710108 37.38582439 31.80861653 40.82177734 36.22607422 C41.69550907 37.34378513 42.57773827 38.45489293 43.46728516 39.56005859 C70.5248487 73.18914306 97.58529009 128.70884375 96.10351562 172.86572266 C82.3080739 178.39572823 68.47775757 183.08318979 54.10351562 186.86572266 C52.99484131 187.16591309 52.99484131 187.16591309 51.86376953 187.47216797 C48.45722638 188.36999217 45.654954 188.86572266 42.10351562 188.86572266 C41.9887085 187.93977295 41.87390137 187.01382324 41.75561523 186.05981445 C38.49121874 159.88864762 34.5797582 133.85689508 30.10351562 107.86572266 C29.97678467 107.12749268 29.85005371 106.3892627 29.71948242 105.62866211 C28.95711644 101.20269001 28.16628441 96.78277918 27.35351562 92.36572266 C27.07411133 90.79129395 27.07411133 90.79129395 26.7890625 89.18505859 C26.51932617 87.77401855 26.51932617 87.77401855 26.24414062 86.33447266 C26.09493164 85.53460937 25.94572266 84.73474609 25.79199219 83.91064453 C24.98911321 81.52592313 24.05114274 80.43382634 22.10351562 78.86572266 C19.37575654 78.25527657 16.84871087 78.37387518 14.10351562 78.86572266 C11.88048045 80.1883778 11.88048045 80.1883778 11.10351562 82.86572266 C10.51316607 91.04116957 12.21960335 98.81881556 13.75201416 106.80511475 C19.57891571 137.35324507 23.76471545 168.05722335 26.91601562 198.99072266 C27.02133606 200.02348328 27.12665649 201.0562439 27.23516846 202.12030029 C30.33832489 232.83669546 30.33832489 232.83669546 30.16601562 247.86572266 C30.14539063 250.50572266 30.12476563 253.14572266 30.10351562 255.86572266 C35.71351563 255.86572266 41.32351563 255.86572266 47.10351562 255.86572266 C46.96719727 253.95110229 46.96719727 253.95110229 46.828125 251.99780273 C46.49090502 247.25492584 46.15599519 242.51188814 45.82177734 237.76879883 C45.67689858 235.71732202 45.53139624 233.66588914 45.38525391 231.61450195 C45.17511033 228.66319979 44.96722145 225.71174607 44.75976562 222.76025391 C44.69414429 221.84548782 44.62852295 220.93072174 44.56091309 219.98823547 C44.27832917 215.93964286 44.01497855 211.92736091 44.10351562 207.86572266 C66.10351562 202.36572266 66.10351562 202.36572266 88.10351562 196.86572266 C88.90059797 212.27598129 86.90667736 228.41089169 76.75976562 240.70556641 C70.1075215 247.82614381 65.55706404 250.13894845 56.10351562 254.86572266 C79.36851562 255.36072266 79.36851562 255.36072266 103.10351562 255.86572266 C103.10351562 256.19572266 103.10351562 256.52572266 103.10351562 256.86572266 C-70.47648438 256.86572266 -244.05648438 256.86572266 -422.89648438 256.86572266 C-422.89648438 256.53572266 -422.89648438 256.20572266 -422.89648438 255.86572266 C-401.44648438 255.86572266 -379.99648438 255.86572266 -357.89648438 255.86572266 C-357.89648438 252.23572266 -357.89648438 248.60572266 -357.89648438 244.86572266 C-357.56648438 243.87572266 -357.23648438 242.88572266 -356.89648438 241.86572266 C-355.99605408 241.86651825 -355.09562378 241.86731384 -354.16790771 241.86813354 C-345.63599448 241.87035151 -337.10474781 241.84367738 -328.57302475 241.78544426 C-324.18786326 241.75650839 -319.80323151 241.73831347 -315.41796875 241.74560547 C-311.17705309 241.75224656 -306.93717978 241.72944585 -302.6964798 241.68716812 C-301.08760545 241.67612115 -299.4786243 241.67525991 -297.86974335 241.68529892 C-286.97331922 241.74451338 -277.65044502 240.59127012 -268.98187256 233.24264526 C-262.01115192 225.81450044 -260.30159709 217.44672199 -260.35058594 207.56274414 C-260.33507942 205.92217293 -260.33507942 205.92217293 -260.31925964 204.24845886 C-260.28994348 200.66109243 -260.28833478 197.07429296 -260.28710938 193.48681641 C-260.27212026 190.98860098 -260.25539158 188.49039545 -260.23699951 185.99220276 C-260.19784447 180.10635875 -260.17613284 174.22065597 -260.16302562 168.33470064 C-260.14554217 160.96928128 -260.10070045 153.60406955 -260.05664062 146.23876953 C-259.98141465 133.1144694 -259.93031648 119.99019146 -259.89648438 106.86572266 C-258.15617162 109.47619179 -257.2442713 111.40799159 -256.24023438 114.32275391 C-255.93988281 115.18835938 -255.63953125 116.05396484 -255.33007812 116.94580078 C-255.02199219 117.8475 -254.71390625 118.74919922 -254.39648438 119.67822266 C-254.08839844 120.56832031 -253.7803125 121.45841797 -253.46289062 122.37548828 C-252.86658719 124.10169716 -252.27744291 125.83039959 -251.69628906 127.56176758 C-251.033304 129.47159359 -250.28062664 131.35000899 -249.50585938 133.21728516 C-248.89648438 135.86572266 -248.89648438 135.86572266 -249.94335938 138.24462891 C-250.50539063 138.96521484 -251.06742188 139.68580078 -251.64648438 140.42822266 C-257.53295789 148.14390406 -257.67503787 155.45409499 -256.89648438 164.86572266 C-255.11503021 172.23688931 -250.18064462 179.09503211 -243.80664062 183.21728516 C-236.76047498 186.86502081 -229.95062932 188.05746706 -222.14648438 186.21728516 C-212.48299703 183.07665177 -206.50574895 177.94713267 -201.80664062 168.97900391 C-198.90324122 162.23763447 -198.66076636 154.60935545 -200.95507812 147.65869141 C-204.74217888 139.49949059 -209.42659415 134.3958492 -217.20898438 129.99072266 C-220.50568963 128.98494817 -223.21851295 128.57334079 -226.62695312 128.29541016 C-227.6146167 128.21274902 -228.60228027 128.13008789 -229.61987305 128.04492188 C-230.37115479 127.98578613 -231.12243652 127.92665039 -231.89648438 127.86572266 C-233.38149063 123.80533344 -234.85846189 119.74206684 -236.33398438 115.67822266 C-236.75486328 114.52773438 -237.17574219 113.37724609 -237.609375 112.19189453 C-238.01220703 111.08007812 -238.41503906 109.96826172 -238.83007812 108.82275391 C-239.20189209 107.80157471 -239.57370605 106.78039551 -239.95678711 105.72827148 C-240.81601435 103.11085412 -241.42401446 100.57643714 -241.89648438 97.86572266 C-236.85231444 99.35300521 -232.54394601 101.54859133 -227.95898438 104.05322266 C-219.10659617 108.79720629 -210.12123941 113.23835528 -201.08398438 117.61572266 C-200.11116013 118.08913589 -200.11116013 118.08913589 -199.11868286 118.57211304 C-197.20655436 119.5018403 -195.29214774 120.42670527 -193.37695312 121.35009766 C-192.27246826 121.88344727 -191.1679834 122.41679688 -190.0300293 122.96630859 C-184.03910973 125.71920885 -177.95654196 128.26855512 -171.89648438 130.86572266 C-171.89648438 172.11572266 -171.89648438 213.36572266 -171.89648438 255.86572266 C-166.28648437 255.86572266 -160.67648437 255.86572266 -154.89648438 255.86572266 C-154.89648438 214.61572266 -154.89648438 173.36572266 -154.89648438 130.86572266 C-146.64648438 127.23572266 -138.39648438 123.60572266 -129.89648438 119.86572266 C-124.92580707 117.59492827 -119.96588045 115.31615291 -115.02148438 112.99072266 C-113.77362968 112.40602446 -112.52574468 111.82139091 -111.27783203 111.23681641 C-99.45177891 105.68817725 -87.65213267 100.07697633 -75.91894531 94.33447266 C-73.82196153 93.31545372 -71.71499994 92.31681374 -69.60058594 91.33447266 C-68.53549805 90.82916016 -67.47041016 90.32384766 -66.37304688 89.80322266 C-65.41736816 89.35849609 -64.46168945 88.91376953 -63.47705078 88.45556641 C-59.94086691 86.27698274 -57.74707098 83.56689586 -55.89648438 79.86572266 C-55.45259095 73.54024129 -56.60860569 68.74883927 -58.89648438 62.86572266 C-56.41878556 62.06921089 -53.9394735 61.2784605 -51.45898438 60.49072266 C-50.77126953 60.26900391 -50.08355469 60.04728516 -49.375 59.81884766 C-44.2692375 58.20400184 -39.13951233 56.95101639 -33.89648438 55.86572266 C-41.37568871 92.82413134 -41.37568871 92.82413134 -46.89648438 103.86572266 C-49.41601562 104.13916016 -49.41601562 104.13916016 -52.70898438 104.24072266 C-67.01218437 105.16502583 -77.80344594 110.96843355 -87.63867188 121.19775391 C-102.58733032 138.86199909 -113.32164378 162.54493245 -111.89648438 185.86572266 C-110.7758391 191.97191582 -108.48461949 196.57681374 -103.89648438 200.86572266 C-97.10918388 205.42372153 -89.86412464 205.75566934 -81.89648438 204.86572266 C-77.49026082 203.37942093 -77.49026082 203.37942093 -74.89648438 199.86572266 C-74.40994898 194.19431047 -74.40994898 194.19431047 -76.45898438 189.05322266 C-81.72879828 184.32390249 -88.1267648 183.17054389 -94.89648438 181.86572266 C-95.57857052 165.30381843 -85.882257 146.4151204 -75.19726562 134.14306641 C-68.33213517 127.34786937 -61.30562808 123.58301319 -51.58398438 123.55322266 C-42.09814336 123.64371673 -36.60999694 125.55534331 -29.65429688 132.03369141 C-19.76473817 142.34080925 -20.38225255 155.2318193 -20.54101562 168.62353516 C-20.90238415 178.61682351 -23.3942831 188.42686264 -28.89648438 196.86572266 C-30.59804688 196.64916016 -30.59804688 196.64916016 -32.33398438 196.42822266 C-33.06101562 196.34185547 -33.78804687 196.25548828 -34.53710938 196.16650391 C-36.11424599 195.9654451 -37.68773145 195.73341147 -39.25585938 195.47119141 C-43.0489792 194.89204056 -45.23683064 194.58501894 -48.83398438 196.11572266 C-51.21349234 198.13469911 -52.71039265 199.81969129 -53.26757812 202.95166016 C-53.38660999 207.05475843 -53.34135493 209.21994282 -50.95898438 212.67822266 C-44.4103828 217.35579521 -38.04451642 220.21902902 -29.89648438 218.86572266 C-21.41616356 216.58146116 -16.57645937 211.50414092 -12.27148438 204.05322266 C-2.39728657 184.30482704 -0.32225568 158.68132502 -5.45898438 137.17822266 C-9.61427305 124.91576236 -16.14206939 116.03533264 -26.89648438 108.86572266 C-25.73205844 102.4417649 -24.20965301 96.19132096 -22.43432617 89.91015625 C-18.69254681 76.66231587 -15.92820994 63.47325101 -13.89648438 49.86572266 C-13.77934082 49.13208496 -13.66219727 48.39844727 -13.54150391 47.64257812 C-11.34643181 33.86874533 -9.60663374 18.26922564 -14.24023438 4.86181641 C-14.89648438 2.86572266 -14.89648438 2.86572266 -14.89648438 -0.13427734 C-8.90848949 -3.24803469 -6.12463348 -3.66311112 0 0 Z "
    fill="#FCF8EF" transform="translate(581.896484375,566.13427734375)"/>
  <path
    d="M0 0 C10.00193943 7.32135265 15.73429389 15.72631917 19.64453125 27.45703125 C20.99605154 40.73101343 19.53172136 51.71039865 11.76953125 62.83203125 C3.80806121 72.56719588 -6.06246329 77.24025977 -18.35546875 79.45703125 C-19.02239614 81.32631876 -19.02239614 81.32631876 -19.35546875 83.45703125 C-18.40965779 84.84196873 -17.45878531 86.22376757 -16.48046875 87.5859375 C-11.29855396 96.20446939 -11.10776335 107.73931303 -12.89453125 117.359375 C-15.06208445 125.27928093 -18.81269547 130.58475328 -25.35546875 135.45703125 C-32.20892817 137.74151772 -38.42190342 136.67538645 -44.93359375 133.7734375 C-52.65887115 129.57437543 -57.45563775 123.78010387 -60.35546875 115.45703125 C-60.35546875 114.13703125 -60.35546875 112.81703125 -60.35546875 111.45703125 C-60.87866699 111.62831543 -61.40186523 111.79959961 -61.94091797 111.97607422 C-85.37894722 119.61341664 -85.37894722 119.61341664 -94.35546875 119.45703125 C-94.43796875 120.15828125 -94.52046875 120.85953125 -94.60546875 121.58203125 C-96.72062194 129.69011849 -103.27559611 134.94206131 -110 139.34375 C-118.58126541 143.39957196 -131.1079791 144.63800469 -140.1640625 141.4765625 C-143.75376818 139.33591232 -145.82900657 137.40576676 -147.35546875 133.45703125 C-148.37591316 125.92235454 -147.00139044 120.04898787 -143.35546875 113.45703125 C-144.36609375 113.25078125 -145.37671875 113.04453125 -146.41796875 112.83203125 C-150.96933112 111.49721214 -154.42288617 109.20513539 -157.35546875 105.45703125 C-158.49623019 102.48290321 -158.46055915 100.76737892 -158.35546875 97.45703125 C-156.37404101 93.11614022 -154.57400403 91.88574437 -150.23046875 90.14453125 C-147.4460507 88.74377121 -147.4460507 88.74377121 -145.35546875 86.45703125 C-144.5089328 82.44048832 -144.47667796 78.71413509 -144.46875 74.62890625 C-144.38137578 60.5066428 -135.88355532 46.39794652 -126.35546875 36.45703125 C-114.93402129 26.42586785 -101.13919936 21.04217965 -85.98046875 21.14453125 C-85.14555908 21.14799561 -84.31064941 21.15145996 -83.45043945 21.1550293 C-74.6639451 21.3100196 -68.14328173 23.49091251 -60.35546875 27.45703125 C-60.09894531 26.56242188 -59.84242188 25.6678125 -59.578125 24.74609375 C-55.94998469 13.28752266 -49.90480766 4.47200659 -39.2578125 -1.7734375 C-38.60941406 -2.08925781 -37.96101563 -2.40507813 -37.29296875 -2.73046875 C-36.64199219 -3.05402344 -35.99101562 -3.37757813 -35.3203125 -3.7109375 C-24.16176781 -8.43612641 -9.88437519 -6.47483947 0 0 Z "
    fill="#215E78" transform="translate(266.35546875,589.54296875)"/>
  <path
    d="M0 0 C4.38708398 2.52724513 7.03276332 6.36393086 9.30078125 10.796875 C12.07161352 25.48228604 7.37012534 36.91384554 -0.3828125 49.1796875 C-1.33375963 51.16974788 -1.33375963 51.16974788 -0.19921875 53.359375 C0.17203125 53.936875 0.54328125 54.514375 0.92578125 55.109375 C1.60382813 54.52929688 2.281875 53.94921875 2.98046875 53.3515625 C13.08100814 44.87382445 23.68448937 36.30334387 37.47265625 36.83203125 C43.30270235 37.49116067 47.33054197 39.08258797 51.30078125 43.484375 C55.20673016 48.55786298 56.58528862 52.62421918 55.92578125 59.109375 C53.8842378 65.66040366 49.60740897 70.36880159 43.92578125 74.109375 C34.14630155 78.18303413 22.08011245 76.98427496 12.37890625 73.0859375 C10.20898297 72.1357537 8.0645159 71.12782007 5.92578125 70.109375 C4.60578125 72.749375 3.28578125 75.389375 1.92578125 78.109375 C4.06046875 78.66625 4.06046875 78.66625 6.23828125 79.234375 C18.4171653 82.90874087 28.49728693 89.33224843 34.7578125 100.52734375 C37.19415022 105.91336125 37.62208741 110.70152867 35.86328125 116.359375 C33.61110152 121.49843965 30.14902253 124.09441703 25.05078125 126.421875 C18.55975549 127.84990067 13.67364799 127.75036692 7.875 124.4921875 C-0.73513982 118.38399211 -4.27047599 109.65146891 -6.32421875 99.609375 C-7.16758091 94.4234375 -7.2788947 89.35135352 -7.07421875 84.109375 C-9.05421875 84.109375 -11.03421875 84.109375 -13.07421875 84.109375 C-13.01234375 85.32625 -12.95046875 86.543125 -12.88671875 87.796875 C-12.93617652 98.29840792 -15.84731779 108.59276158 -22.07421875 117.109375 C-26.78257954 121.70695083 -31.77597625 124.79822005 -38.38671875 125.421875 C-44.14472673 124.93390822 -48.35938256 123.48124395 -52.88671875 119.859375 C-56.45595598 115.3723339 -58.41955481 111.45121032 -58.01171875 105.671875 C-56.57909192 96.86718927 -51.98919882 90.60535457 -45.07421875 85.109375 C-39.29230521 81.22121302 -33.07682406 77.04569322 -26.07421875 76.109375 C-26.40421875 74.129375 -26.73421875 72.149375 -27.07421875 70.109375 C-27.75484375 70.398125 -28.43546875 70.686875 -29.13671875 70.984375 C-39.25060474 74.85777815 -51.69666145 76.50881302 -62.046875 72.27734375 C-68.28880481 68.68131868 -73.67175958 64.13935212 -75.7109375 57.05078125 C-76.80674267 51.19470417 -76.37208371 47.10936381 -73.07421875 42.109375 C-69.31365996 38.30339884 -65.28440488 34.53629094 -59.8125 33.80859375 C-48.97716431 33.75624913 -40.09799713 37.27866644 -32.24609375 44.87890625 C-29.39598192 48.05415219 -27.32982567 50.96587216 -26.07421875 55.109375 C-24.42421875 53.459375 -22.77421875 51.809375 -21.07421875 50.109375 C-21.41195312 49.3359375 -21.7496875 48.5625 -22.09765625 47.765625 C-22.54367187 46.7240625 -22.9896875 45.6825 -23.44921875 44.609375 C-23.89007812 43.5884375 -24.3309375 42.5675 -24.78515625 41.515625 C-27.33073082 34.78913706 -28.41902624 28.66956102 -28.38671875 21.484375 C-28.40283203 20.75992188 -28.41894531 20.03546875 -28.43554688 19.2890625 C-28.44183798 12.34367919 -25.94492729 7.11172431 -21.07421875 2.109375 C-14.18449246 -2.50884764 -7.71042943 -3.17400202 0 0 Z "
    fill="#FCF9F1" transform="translate(619.07421875,196.890625)"/>
  <path
    d="M0 0 C9.39436811 4.19179083 16.273706 12.61942901 21.4375 21.25 C21.90631592 22.02867432 22.37513184 22.80734863 22.8581543 23.60961914 C36.49982707 46.88262477 46.16113661 76.58229737 46.625 103.625 C46.64804199 104.388125 46.67108398 105.15125 46.69482422 105.9375 C46.63850366 109.89960695 46.00473265 111.99279519 43.81640625 115.32421875 C35.33587158 123.3813148 22.92518772 127.13052935 11.421875 127.59375 C6.621599 126.41690814 3.72829766 123.00937071 0.9453125 119.15234375 C-14.03094444 92.70285993 -24.04172254 61.17704216 -24.3125 30.6875 C-24.34150391 29.61048828 -24.37050781 28.53347656 -24.40039062 27.42382812 C-24.46776876 18.86680451 -22.79067818 12.2310282 -18.0625 5.0625 C-12.65855955 -0.34144045 -7.47894295 -1.25333934 0 0 Z "
    fill="#3A3778" transform="translate(250,126)"/>
  <path
    d="M0 0 C7.11760538 5.59418809 11.16105543 12.48316628 14 21 C14.92359178 32.39875937 14.59851691 41.21325737 8 51 C7.278125 52.093125 6.55625 53.18625 5.8125 54.3125 C-4.40617609 64.07701271 -15.60065622 67.55199487 -29.51220703 67.49023438 C-40.77600095 67.07927504 -50.96374166 62.95341032 -59 55 C-66.44365869 46.97088501 -69.76915154 38.1884602 -69.3828125 27.2421875 C-68.02765583 15.76484016 -62.04408244 6.93873364 -53.3515625 -0.39453125 C-37.12059377 -11.47580724 -16.27572357 -10.3818569 0 0 Z "
    fill="#F7C2D1" transform="translate(616,426)"/>
  <path
    d="M0 0 C6.76533839 5.74590384 11.19690011 12.29773158 13.99609375 20.6953125 C14.86120903 33.98405046 13.79677013 44.03343947 5.05078125 54.65625 C-4.34918332 63.98473195 -16.54417162 67.0078125 -29.34814453 67.0078125 C-42.00264923 66.77062477 -51.94531766 61.73922627 -60.8828125 52.8203125 C-67.04980092 45.40137906 -69.73586117 35.83916675 -69.32421875 26.2890625 C-68.01497563 15.68738652 -62.29812012 6.34002043 -54.00390625 -0.3046875 C-37.4179936 -11.08924954 -16.44547675 -12.0097243 0 0 Z "
    fill="#F7C2D1" transform="translate(272.00390625,426.3046875)"/>
  <path
    d="M0 0 C3.32889962 5.91804377 3.461437 11.57610096 3.4375 18.1875 C3.45361328 19.08919922 3.46972656 19.99089844 3.48632812 20.91992188 C3.48697266 21.78552734 3.48761719 22.65113281 3.48828125 23.54296875 C3.49126221 24.32696045 3.49424316 25.11095215 3.49731445 25.91870117 C3.01394632 28.62080829 2.33511481 29.38478031 0.125 31 C-2.47192383 32.01147461 -2.47192383 32.01147461 -5.58203125 32.90234375 C-6.72019287 33.23322998 -7.85835449 33.56411621 -9.03100586 33.9050293 C-10.23764893 34.24574463 -11.44429199 34.58645996 -12.6875 34.9375 C-13.90896729 35.29303955 -15.13043457 35.6485791 -16.38891602 36.01489258 C-21.45456705 37.48415067 -26.52175532 38.93088391 -31.6328125 40.234375 C-32.84710937 40.54890625 -34.06140625 40.8634375 -35.3125 41.1875 C-36.32183594 41.42855469 -37.33117187 41.66960938 -38.37109375 41.91796875 C-41.64051425 43.33080725 -42.99356602 45.00660741 -44.875 48 C-44.875 54.26461385 -43.05859077 57.72717778 -39.875 63 C-39.4926378 64.65610629 -39.14932598 66.32261091 -38.875 68 C-58.9368099 78.16915632 -79.22216524 87.86016674 -99.6875 97.1875 C-100.76340897 97.67937302 -100.76340897 97.67937302 -101.86105347 98.18118286 C-103.91228739 99.11782918 -105.96550961 100.0499542 -108.01953125 100.98046875 C-109.19878174 101.51567139 -110.37803223 102.05087402 -111.59301758 102.60229492 C-114.6514744 103.90480666 -117.70627531 105.00031595 -120.875 106 C-121.55862879 102.70615221 -121.77784108 101.18502271 -120.875 98 C-118.37898009 94.94193305 -115.65043363 92.33074617 -112.75390625 89.66015625 C-109.7970179 86.92794327 -107.20788244 84.06108248 -104.6015625 81.00390625 C-102.65758954 78.74766614 -100.64176482 76.56636107 -98.625 74.375 C-94.08016719 69.33800255 -89.91398809 64.05837606 -85.76171875 58.69921875 C-83.83649488 56.21736691 -81.88164119 53.76460604 -79.89453125 51.33203125 C-74.76563234 45.04657519 -69.83589034 38.6952049 -65.25 32 C-64.57565918 31.01580078 -64.57565918 31.01580078 -63.88769531 30.01171875 C-61.59047476 26.6249403 -59.36664022 23.20519095 -57.2109375 19.7265625 C-56.77604004 19.03820312 -56.34114258 18.34984375 -55.89306641 17.640625 C-55.07270736 16.33664265 -54.2690079 15.02196495 -53.48583984 13.6953125 C-50.52148173 9.00784896 -48.1343119 8.24938481 -42.875 7 C-40.34092753 6.48860031 -37.79984895 6.01108519 -35.25390625 5.5625 C-34.19851906 5.37409546 -34.19851906 5.37409546 -33.12181091 5.18188477 C-30.89430021 4.78449153 -28.66600568 4.39177202 -26.4375 4 C-24.21262255 3.60792979 -21.98797566 3.21471412 -19.76390076 2.81811523 C-17.74357536 2.45794259 -15.72251605 2.10189379 -13.70141602 1.74609375 C-10.91283881 1.20236301 -8.24387799 0.58165586 -5.50756836 -0.15234375 C-1.875 -1 -1.875 -1 0 0 Z "
    fill="#FBF7F0" transform="translate(547.875,573)"/>
  <path
    d="M0 0 C1.64524658 0.21329956 1.64524658 0.21329956 3.32373047 0.4309082 C20.42590279 2.44366834 37.52241362 2.26835444 54.7109375 2.19561768 C57.92944345 2.18479493 61.14790739 2.18519037 64.36642838 2.18563652 C80.26407726 2.18504154 96.13553271 2.16260938 112 1 C103.22422956 15.48073996 92.93799412 29.08735915 82 42 C81.10765282 43.06605475 80.21574952 44.13248115 79.32421875 45.19921875 C74.33001092 51.15685562 69.24381231 57.01085767 64.015625 62.765625 C61.28352067 65.79423677 58.63760987 68.88897297 56 72 C51.26502773 68.5563838 47.76540913 64.42867386 44 60 C43.11446999 58.98724061 42.22766313 57.97559679 41.33984375 56.96484375 C27.31624996 40.92373798 14.62091622 23.69114705 2.62109375 6.09375 C2.11892334 5.35833984 1.61675293 4.62292969 1.09936523 3.86523438 C0 2 0 2 0 0 Z "
    fill="#63A09F" transform="translate(363,583)"/>
  <path
    d="M0 0 C2.48034065 3.63783295 2.53715564 5.40920191 1.875 9.75 C-0.31003163 16.90885362 -5.34260631 21.27366821 -11.125 25.75 C-11.785 26.08 -12.445 26.41 -13.125 26.75 C-13.65835536 33.47143228 -13.65835536 33.47143228 -11.5 39.6875 C-7.03803875 43.56236109 -3.22568869 45.29983908 2.79296875 45.03515625 C9.2706459 44.1479697 13.63165264 41.77501661 17.875 36.75 C18.33390625 36.06808594 18.7928125 35.38617188 19.265625 34.68359375 C23.1188332 29.01532168 23.1188332 29.01532168 27.4375 27.5 C31.56717516 27.80034001 33.02362166 28.8147576 35.875 31.75 C37.28466119 34.56932239 37.12069446 36.62123467 36.875 39.75 C31.88595211 49.83723121 23.39280188 57.0727234 12.875 60.75 C8.60745812 61.95621339 4.53546611 62.00845017 0.125 62.0625 C-1.03515625 62.10600586 -1.03515625 62.10600586 -2.21875 62.15039062 C-9.73717983 62.23238692 -15.37638569 59.54051193 -21.125 54.75 C-21.67285156 55.02714844 -22.22070312 55.30429687 -22.78515625 55.58984375 C-25.36178633 56.86740491 -27.95428665 58.10063943 -30.5625 59.3125 C-31.95275391 59.96412109 -31.95275391 59.96412109 -33.37109375 60.62890625 C-42.5200455 64.35337313 -52.56992415 63.71587887 -61.59375 60.0078125 C-70.18586645 55.73827315 -78.96740984 48.0254211 -82.125 38.75 C-82.125 34.48545749 -81.77512216 32.5148496 -79 29.25 C-75.20886986 27.27201906 -73.19702027 27.61888326 -69.125 28.75 C-66.53776159 30.47482561 -65.76736887 32.40565707 -64.25 35.1875 C-61.81283258 39.56332333 -58.95176281 41.91965327 -54.375 44 C-47.38682826 45.61265502 -42.13103783 45.28045631 -35.75390625 41.91796875 C-33.82194467 40.67778931 -33.82194467 40.67778931 -32.125 37.75 C-31.66584493 34.78157342 -31.66584493 34.78157342 -31.5 31.5625 C-31.42523438 30.47582031 -31.35046875 29.38914062 -31.2734375 28.26953125 C-31.22445312 27.43808594 -31.17546875 26.60664063 -31.125 25.75 C-31.86363281 25.49992187 -32.60226562 25.24984375 -33.36328125 24.9921875 C-36.34989503 23.64884495 -38.03636967 22.20836378 -40.3125 19.875 C-40.98667969 19.19695312 -41.66085937 18.51890625 -42.35546875 17.8203125 C-45.91741881 13.65290955 -46.59877204 10.32010857 -46.421875 4.93359375 C-45.93746721 1.370647 -44.91720514 0.01035654 -42.125 -2.25 C-30.63926924 -8.324894 -10.48668862 -7.55041581 0 0 Z "
    fill="#3A3777" transform="translate(439.125,416.25)"/>
  <path
    d="M0 0 C9.28416041 5.38691966 14.25905802 12.83967406 17.625 22.9375 C18.38737809 30.56128087 17.32726789 36.24366743 13.625 42.9375 C12.98433594 42.793125 12.34367188 42.64875 11.68359375 42.5 C6.54459623 41.39714509 1.87804157 40.70910689 -3.375 40.9375 C-3.705 42.5875 -4.035 44.2375 -4.375 45.9375 C0.9849996 48.35000727 0.9849996 48.35000727 6.625 49.9375 C5.45221123 53.45586632 4.11038238 54.29059845 0.92578125 56.03125 C-2.77232961 57.48789129 -6.57667227 57.8932777 -10.5078125 58.34765625 C-16.31940841 59.5432298 -19.0130334 62.37905999 -22.25 67.1875 C-35.47769247 85.86333296 -56.36808247 93.86525969 -78.19726562 98.42041016 C-95.13109976 101.17593111 -118.71459304 100.76770348 -134.375 92.9375 C-134.375 92.2775 -134.375 91.6175 -134.375 90.9375 C-129.90206121 88.35313537 -127.41475336 87.66937648 -122.34375 88.83203125 C-116.40998733 90.02302324 -110.72800399 90.28294642 -104.6875 90.25 C-103.11983887 90.24480347 -103.11983887 90.24480347 -101.52050781 90.23950195 C-92.81179695 90.11821258 -84.82933126 89.01048292 -76.375 86.9375 C-74.83392578 86.59525391 -74.83392578 86.59525391 -73.26171875 86.24609375 C-55.96483543 82.38466031 -55.96483543 82.38466031 -41.375 72.9375 C-40.75109375 72.34066406 -40.1271875 71.74382812 -39.484375 71.12890625 C-34.11608414 65.52377903 -30.8358648 59.36490908 -30.02734375 51.59765625 C-30.45999006 47.04271697 -32.09156811 44.31218036 -34.375 40.4375 C-39.01245877 31.89207036 -40.45650903 24.02116948 -37.62890625 14.3984375 C-35.70076313 10.12612038 -32.89718698 7.03015198 -29.375 3.9375 C-28.570625 3.215625 -27.76625 2.49375 -26.9375 1.75 C-19.24800611 -3.68891031 -8.4144986 -3.91132657 0 0 Z "
    fill="#77CDB9" transform="translate(257.375,598.0625)"/>
  <path
    d="M0 0 C12.64794816 0 12.64794816 0 18 3 C23.70422297 8.99654465 27.31517305 16.7320167 31.24609375 23.94482422 C33.75453301 28.31434105 36.6850786 32.24673682 39.8125 36.1875 C40.34770264 36.86796387 40.88290527 37.54842773 41.43432617 38.24951172 C42.4662421 39.55565759 43.50151485 40.85916016 44.54052734 42.15966797 C46.36265492 44.4572922 48.13086095 46.79302785 49.89892578 49.13232422 C57.01648281 58.52319098 64.62994688 67.4785097 72.5625 76.1875 C73.01077148 76.68169434 73.45904297 77.17588867 73.92089844 77.68505859 C76.1652189 80.12626348 78.46237131 82.42146447 80.9140625 84.65625 C82.28691406 85.90921875 82.28691406 85.90921875 83.6875 87.1875 C84.51636719 87.90292969 85.34523438 88.61835937 86.19921875 89.35546875 C88.78998784 93.16013398 88.37656862 96.53029424 88 101 C23.36363636 73.36363636 23.36363636 73.36363636 12 62 C10.48133465 55.65129372 10.93451175 51.74779046 14 46 C13.83167183 41.03431887 13.5761877 39.5761877 10 36 C5.05 34.515 5.05 34.515 0 33 C0 22.11 0 11.22 0 0 Z "
    fill="#FBF8F0" transform="translate(322,578)"/>
  <path
    d="M0 0 C7.44555122 4.91406381 10.59395251 12.32039719 12.60742188 20.8605957 C14.77459092 32.67085835 13.69004147 45.99480593 7.57421875 56.43359375 C3.47110214 62.21188459 -0.95400782 66.34211949 -8 68 C-13.45588867 68.62321774 -17.28083969 68.04123664 -22 65 C-29.32631752 58.74582651 -33.38409226 51.06554621 -34.22045898 41.47094727 C-34.85466079 26.76363319 -34.36009699 14.35316328 -24 3 C-16.53432934 -3.91940207 -9.07487929 -4.78493635 0 0 Z "
    fill="#3B3778" transform="translate(317,370)"/>
  <path
    d="M0 0 C7.70066077 3.38589365 12.33665485 9.52186277 15.8203125 17.0078125 C18.01088927 23.18914298 18.34390786 29.0376201 18.3828125 35.5703125 C18.38917725 36.48441895 18.39554199 37.39852539 18.40209961 38.34033203 C18.21091498 48.59410859 15.55058464 57.4718964 8.8828125 65.3828125 C4.79364403 69.03782234 0.97404434 70.18173252 -4.3671875 70.6953125 C-11.26052273 70.1208679 -15.60196681 67.25350943 -20.3671875 62.3203125 C-29.1654302 51.86267628 -29.84319993 38.62205272 -29.30517578 25.56347656 C-28.58167273 17.1708412 -24.44862678 9.13702856 -18.1171875 3.6328125 C-12.28090925 -0.74439619 -7.16043111 -2.08735815 0 0 Z "
    fill="#3B3778" transform="translate(533.1171875,367.6171875)"/>
  <path
    d="M0 0 C14.35474972 7.66082498 21.63288862 29.65939718 26.26025391 44.47460938 C34.19260587 71.55455946 34.19260587 71.55455946 34.0625 81.3125 C34.05347656 82.19550781 34.04445313 83.07851562 34.03515625 83.98828125 C34.02355469 84.65214844 34.01195312 85.31601563 34 86 C32.79731319 86.65628849 31.58747446 87.29947505 30.375 87.9375 C29.36566406 88.47697266 29.36566406 88.47697266 28.3359375 89.02734375 C25.58172092 90.17416637 22.94741449 90.5988476 20 91 C13.99579329 78.96039589 9.12978271 66.80232639 5 54 C4.75088867 53.23059082 4.50177734 52.46118164 4.24511719 51.66845703 C0.17467816 38.93112246 -2.13847348 26.83627254 -2.25 13.4375 C-2.25942627 12.56762451 -2.26885254 11.69774902 -2.27856445 10.80151367 C-2.27429443 9.9788501 -2.27002441 9.15618652 -2.265625 8.30859375 C-2.26336914 7.57439209 -2.26111328 6.84019043 -2.25878906 6.08374023 C-1.96375597 3.70816718 -1.17574559 2.06923051 0 0 Z "
    fill="#F3BECF" transform="translate(245,144)"/>
  <path
    d="M0 0 C4.38708398 2.52724513 7.03276332 6.36393086 9.30078125 10.796875 C11.83556503 24.23122904 8.368613 35.85209197 0.92578125 47.109375 C-1.94921875 49.796875 -1.94921875 49.796875 -4.07421875 51.109375 C-4.73421875 50.779375 -5.39421875 50.449375 -6.07421875 50.109375 C-7.88463668 50.01304603 -9.69874628 49.97955967 -11.51171875 49.984375 C-12.47980469 49.98179687 -13.44789063 49.97921875 -14.4453125 49.9765625 C-17.18439704 49.99723527 -17.18439704 49.99723527 -20.07421875 51.109375 C-25.45652464 41.30209036 -28.30859163 32.49055371 -28.44921875 21.296875 C-28.46315674 20.57943115 -28.47709473 19.8619873 -28.49145508 19.12280273 C-28.42939342 12.20494336 -25.85758485 7.02202127 -21.07421875 2.109375 C-14.18449246 -2.50884764 -7.71042943 -3.17400202 0 0 Z "
    fill="#FCF9F2" transform="translate(619.07421875,196.890625)"/>
  <path
    d="M0 0 C4.73069407 2.89323564 8.47470287 7.73084272 9.8203125 13.11328125 C10.4963812 19.08522147 9.21650953 23.27512347 5.8203125 28.11328125 C0.76069789 33.60350136 -3.89768901 36.77192615 -11.51171875 37.37890625 C-18.30287136 37.34841847 -24.70871232 37.30525122 -31.1796875 35.11328125 C-32.51580078 34.68789063 -32.51580078 34.68789063 -33.87890625 34.25390625 C-36.73192229 33.1306075 -38.8480863 32.11116091 -41.1796875 30.11328125 C-43.38094857 24.95891994 -43.86014021 19.48722896 -42.1796875 14.11328125 C-32.99381696 2.48848231 -14.28101476 -6.09978566 0 0 Z "
    fill="#FCF9F2" transform="translate(665.1796875,235.88671875)"/>
  <path
    d="M0 0 C2.00348966 1.66247014 4.00334402 3.32932867 6 5 C8.7124618 6.3049484 8.7124618 6.3049484 11 7 C11.60005773 18.80113528 9.05988783 30.3440996 2 40 C-2.70836079 44.59757583 -7.7017575 47.68884505 -14.3125 48.3125 C-20.07050798 47.82453322 -24.28516381 46.37186895 -28.8125 42.75 C-32.38173723 38.2629589 -34.34533606 34.34183532 -33.9375 28.5625 C-32.50621675 19.76607171 -27.91921847 13.48255632 -21 8 C-5.52280798 -2.20912319 -5.52280798 -2.20912319 0 0 Z "
    fill="#FCF9F2" transform="translate(595,274)"/>
  <path
    d="M0 0 C5.67936571 0.38393671 9.97953996 2.089391 15 4.6875 C15.70624512 5.05053223 16.41249023 5.41356445 17.14013672 5.78759766 C26.05233713 10.48073548 31.76307331 15.63341626 36 25 C37.5933373 30.38530204 37.33437427 35.06258688 35.078125 40.2109375 C32.65987164 44.2238362 29.37569121 46.37196706 25.125 48.3125 C18.63397424 49.74052567 13.74786674 49.64099192 7.94921875 46.3828125 C-0.63920931 40.29001985 -4.18146215 31.57707634 -6.25 21.5625 C-8.01346463 10.06732315 -8.01346463 10.06732315 -7 5 C-4.0625 2.375 -4.0625 2.375 -1 1 C-0.67 0.67 -0.34 0.34 0 0 Z "
    fill="#FCF9F2" transform="translate(619,275)"/>
  <path
    d="M0 0 C3.3125 1.4375 3.3125 1.4375 6 3 C6.99 3.33 7.98 3.66 9 4 C10.051875 3.360625 11.10375 2.72125 12.1875 2.0625 C16.3953854 -0.48531247 19.1108439 -0.62084522 24 0 C27.75212276 2.01502889 29.63644095 3.45466142 32 7 C32.68508486 12.77428668 32.00019525 16.15922709 28.67578125 20.92578125 C23.55105752 27.26897077 16.81947695 35.0748307 9 38 C-0.23120463 35.64091437 -9.34639938 26.06473099 -14.16015625 18.07421875 C-15.74611584 14.15726739 -15.67531185 10.13210616 -15 6 C-10.68312764 0.4335067 -6.89222398 -0.75724621 0 0 Z "
    fill="#3991A5" transform="translate(187,735)"/>
  <path
    d="M0 0 C2.05043059 5.09352996 2.31525452 9.47697055 2.25 14.875 C2.23658569 16.11878418 2.23658569 16.11878418 2.22290039 17.38769531 C1.83645194 38.36403733 1.83645194 38.36403733 -1.48046875 43.125 C-2.65842567 44.20674411 -3.87326939 45.24965646 -5.12109375 46.25 C-11.85313342 52.52017417 -13.85090691 62.26689252 -15 71 C-20.94 70.34 -26.88 69.68 -33 69 C-29.27635193 47.31522597 -22.43874244 21.43975816 -7 5 C-6.51402344 4.45988281 -6.02804687 3.91976562 -5.52734375 3.36328125 C-2.36678082 0 -2.36678082 0 0 0 Z "
    fill="#F3BFCF" transform="translate(589,145)"/>
  <path
    d="M0 0 C0.94488281 -0.01417969 1.88976562 -0.02835938 2.86328125 -0.04296875 C5.87131715 0.20250029 7.99838125 0.83350512 10.6875 2.1875 C12 4.3125 12 4.3125 12.6875 6.1875 C13.3475 6.1875 14.0075 6.1875 14.6875 6.1875 C17.50795254 12.7097965 17.67209333 19.70860357 15.75 26.5 C12.37866272 30.89295464 8.03907764 34.44068107 2.53125 35.66796875 C-2.09855445 35.85494162 -5.52101593 34.74263057 -9.3125 32.1875 C-14.17029646 27.47759898 -16.06110337 24.20425954 -16.625 17.4375 C-16.55429249 12.70009692 -14.98383922 9.06137134 -12.3125 5.1875 C-8.14331753 1.31611628 -5.62411504 0.0380522 0 0 Z "
    fill="#F3C64D" transform="translate(607.3125,245.8125)"/>
  <path
    d="M0 0 C3.5707565 -0.51669861 5.60969257 -0.62164246 9.0234375 0.625 C13.08400874 4.78432054 19.0234375 12.61219694 19.0234375 18.625 C-4.54601609 26.78958196 -4.54601609 26.78958196 -13.9765625 26.625 C-14.84619337 23.62793305 -15.09419349 20.97543474 -15.07421875 17.859375 C-15.07099609 16.96992187 -15.06777344 16.08046875 -15.06445312 15.1640625 C-15.05188477 13.78347656 -15.05188477 13.78347656 -15.0390625 12.375 C-15.03455078 11.43914063 -15.03003906 10.50328125 -15.02539062 9.5390625 C-15.01363168 7.23430959 -14.99719676 4.92968773 -14.9765625 2.625 C-12.03536449 1.154401 -9.14896357 1.10036059 -5.890625 0.875 C-2.94856384 0.68184041 -2.94856384 0.68184041 0 0 Z "
    fill="#3A95A1" transform="translate(176.9765625,650.375)"/>
  <path
    d="M0 0 C0.90234375 -0.01224609 1.8046875 -0.02449219 2.734375 -0.03710938 C3.60578125 -0.03904297 4.4771875 -0.04097656 5.375 -0.04296875 C6.16648438 -0.04707764 6.95796875 -0.05118652 7.7734375 -0.05541992 C10.23783271 0.21344776 11.86541094 0.9578573 14 2.1875 C13.43410156 3.10273437 12.86820313 4.01796875 12.28515625 4.9609375 C11.54422663 6.16143106 10.80334364 7.36195339 10.0625 8.5625 C9.68931641 9.16578125 9.31613281 9.7690625 8.93164062 10.390625 C6.86411035 13.73149631 6.86411035 13.73149631 5 17.1875 C1.05437632 18.30342118 -3.00985037 18.78564781 -7.0625 19.375 C-8.74375977 19.68920898 -8.74375977 19.68920898 -10.45898438 20.00976562 C-13.86340986 20.49154281 -16.60237634 20.74886583 -20 20.1875 C-23.38070075 17.63431026 -25.70412994 14.72803025 -28 11.1875 C-26.1691135 7.01834056 -24.25611285 5.96455122 -20.125 4 C-19.07570312 3.49082031 -18.02640625 2.98164062 -16.9453125 2.45703125 C-11.23758631 -0.00319555 -6.14243445 0.00438745 0 0 Z "
    fill="#3B96A2" transform="translate(180,622.8125)"/>
  <path
    d="M0 0 C0.66 0 1.32 0 2 0 C5.93193005 8.35535136 6.38961401 17.23443192 3.75 26.125 C2.76914138 28.61136254 1.97092553 30.03308474 0.1875 32.0625 C-2.82939999 33.35545714 -4.73861854 33.45659341 -8 33 C-12.72826147 30.49112656 -16.01376042 27.4366988 -19 23 C-19.55692033 20.33709692 -19.74017431 17.71559757 -20 15 C-18.46279297 14.00419922 -18.46279297 14.00419922 -16.89453125 12.98828125 C-15.53364831 12.09666829 -14.17298271 11.20472354 -12.8125 10.3125 C-12.13896484 9.87744141 -11.46542969 9.44238281 -10.77148438 8.99414062 C-7.62071311 6.91924247 -4.7563883 4.89538821 -2.13671875 2.16796875 C-1.07904297 1.09482422 -1.07904297 1.09482422 0 0 Z "
    fill="#78CEB9" transform="translate(237,681)"/>
  <path
    d="M0 0 C3.16961356 1.28133314 4.57820229 2.5200233 6.8125 5.0625 C8.57137441 9.41339986 8.79133407 13.37772156 8 18 C6.2916453 21.43780021 3.91333042 23.48478797 0.5625 25.375 C-4.05234161 26.50057113 -6.83885967 26.60379297 -11.125 24.375 C-15.37247239 20.86621846 -17.70972347 18.03193569 -18.5 12.5 C-17.80193498 7.61354487 -15.8149702 4.63308619 -12.16796875 1.3515625 C-8.3604418 -1.02213899 -4.3366839 -0.5139252 0 0 Z "
    fill="#62A09F" transform="translate(358,711)"/>
  <path
    d="M0 0 C3.86431286 1.57434968 6.31947849 3.82204526 9 7 C9.65942383 10.22973633 9.65942383 10.22973633 9.70703125 13.83203125 C9.73603516 15.12431641 9.76503906 16.41660156 9.79492188 17.74804688 C9.8013102 19.10286219 9.80716288 20.45768013 9.8125 21.8125 C9.83565748 23.1868884 9.86102545 24.56124144 9.88867188 25.93554688 C9.94753342 29.29065515 9.98382337 32.64445874 10 36 C7.91292168 36.04061708 5.8256156 36.06964716 3.73828125 36.09375 C2.57594971 36.11115234 1.41361816 36.12855469 0.21606445 36.14648438 C-3.72908389 35.9667919 -5.79072801 35.20064365 -9 33 C-9.7239478 20.71299703 -8.07798933 9.64870948 0 0 Z "
    fill="#3B96A2" transform="translate(143,641)"/>
  <path
    d="M0 0 C6.50389108 2.40884855 9.84316244 9.13706743 13.27734375 14.75390625 C14 17 14 17 13.34375 19.4765625 C11.93359402 22.12470425 10.39450694 24.43680068 8.5625 26.8125 C7.66724609 27.99779297 7.66724609 27.99779297 6.75390625 29.20703125 C6.17511719 29.79871094 5.59632813 30.39039063 5 31 C4.01 31 3.02 31 2 31 C0.08682177 28.63823495 -1.58557197 26.33970358 -3.25 23.8125 C-3.95769531 22.80219727 -3.95769531 22.80219727 -4.6796875 21.77148438 C-8.00463393 16.78892577 -8.00463393 16.78892577 -7.984375 13.33984375 C-6.85135776 10.64667975 -5.5451543 8.23116124 -4 5.75 C-3.46375 4.87859375 -2.9275 4.0071875 -2.375 3.109375 C-1 1 -1 1 0 0 Z "
    fill="#3B96A2" transform="translate(202,630)"/>
  <path
    d="M0 0 C1.68319336 0.18369141 1.68319336 0.18369141 3.40039062 0.37109375 C6.1673478 0.67722518 8.92743566 1.01266025 11.6875 1.375 C9.27291233 6.60842758 5.3514008 9.64914756 -0.00390625 11.84375 C-5.29547471 13.0614375 -10.92406185 12.75060159 -16.3125 12.375 C-17.3125 11.375 -17.3125 11.375 -17.6875 8.6875 C-17.29492048 5.21971424 -16.4917746 3.19556446 -14.18457031 0.55834961 C-10.01352904 -2.0781967 -4.65458154 -0.61480738 0 0 Z "
    fill="#7ACFBA" transform="translate(148.3125,707.625)"/>
  <path
    d="M0 0 C3.4375 0.625 3.4375 0.625 5.9375 2.6875 C7.89390324 6.51878967 7.57641039 8.5249226 6.4375 12.625 C5.375 14.5625 5.375 14.5625 3.4375 15.625 C-3.39461679 16.38412409 -3.39461679 16.38412409 -7.0625 14 C-9.04448314 10.86186002 -9.23314058 9.27626535 -8.5625 5.625 C-5.93038535 1.95599171 -4.47395674 0.78490469 0 0 Z "
    fill="#1E5D77" transform="translate(250.5625,615.375)"/>
  <path
    d="M0 0 C6.76088057 1.36400273 13.4325423 1.57197414 20.3125 1.75 C21.55064453 1.78867187 22.78878906 1.82734375 24.06445312 1.8671875 C27.08449626 1.96047069 30.1045486 2.04626406 33.125 2.125 C33.125 2.455 33.125 2.785 33.125 3.125 C22.83716986 4.79115244 12.4300456 4.57132219 2.125 3.125 C2.125 4.445 2.125 5.765 2.125 7.125 C0.54090006 7.01012252 -1.04228963 6.88265492 -2.625 6.75 C-3.50671875 6.68039062 -4.3884375 6.61078125 -5.296875 6.5390625 C-7.86566382 6.12649945 -9.63341015 5.41339043 -11.875 4.125 C-11.875 3.465 -11.875 2.805 -11.875 2.125 C-7.46886786 -0.42076524 -4.99128062 -1.15828192 0 0 Z "
    fill="#7DD5BD" transform="translate(134.875,686.875)"/>
  <path
    d="M0 0 C1.98 0 3.96 0 6 0 C6 4.29 6 8.58 6 13 C4.35 13.33 2.7 13.66 1 14 C0.34 15.98 -0.32 17.96 -1 20 C-1.33 20 -1.66 20 -2 20 C-1.41339754 13.32271667 -0.76418989 6.65936905 0 0 Z "
    fill="#2C296D" transform="translate(606,281)"/>
  <path
    d="M0 0 C0.87205078 -0.01224609 1.74410156 -0.02449219 2.64257812 -0.03710938 C3.90038086 -0.04000977 3.90038086 -0.04000977 5.18359375 -0.04296875 C5.9511499 -0.04707764 6.71870605 -0.05118652 7.50952148 -0.05541992 C9.5625 0.1875 9.5625 0.1875 12.5625 2.1875 C8.90907606 4.01421197 4.58410841 3.37220722 0.5625 3.375 C-0.8296875 3.39336914 -0.8296875 3.39336914 -2.25 3.41210938 C-3.136875 3.41404297 -4.02375 3.41597656 -4.9375 3.41796875 C-6.15953125 3.42413208 -6.15953125 3.42413208 -7.40625 3.43041992 C-9.4375 3.1875 -9.4375 3.1875 -11.4375 1.1875 C-7.91593642 -0.57328179 -3.87858049 0.002854 0 0 Z "
    fill="#423F7A" transform="translate(416.4375,410.8125)"/>
  <path
    d="M0 0 C0.33 1.98 0.66 3.96 1 6 C-0.78710586 6.86366822 -2.5798465 7.71568594 -4.375 8.5625 C-5.37273438 9.03816406 -6.37046875 9.51382812 -7.3984375 10.00390625 C-8.25695312 10.33261719 -9.11546875 10.66132813 -10 11 C-10.66 10.67 -11.32 10.34 -12 10 C-11.01 9.34 -10.02 8.68 -9 8 C-9 7.01 -9 6.02 -9 5 C-8.34 5 -7.68 5 -7 5 C-7 4.01 -7 3.02 -7 2 C-2.25 0 -2.25 0 0 0 Z "
    fill="#312D71" transform="translate(592,267)"/>
  <path
    d="M0 0 C15.36798951 -0.10674496 30.66755906 -0.13573637 46 1 C46 1.33 46 1.66 46 2 C42.03092526 2.16729064 38.06164279 2.32788226 34.09204102 2.48217773 C32.74072921 2.53565802 31.38948948 2.59099194 30.03833008 2.64819336 C28.09997011 2.72993571 26.16131296 2.80453323 24.22265625 2.87890625 C23.05484619 2.9260376 21.88703613 2.97316895 20.68383789 3.02172852 C18 3 18 3 17 2 C14.14122091 1.76298761 11.30116703 1.57780818 8.4375 1.4375 C7.63119141 1.39431641 6.82488281 1.35113281 5.99414062 1.30664062 C3.99631195 1.20024738 1.9981793 1.09959112 0 1 C0 0.67 0 0.34 0 0 Z "
    fill="#AD7EDF" transform="translate(134,4)"/>
  <path
    d="M0 0 C4.64803872 1.77773592 9.12592057 3.88097966 13.625 6 C14.388125 6.35578125 15.15125 6.7115625 15.9375 7.078125 C16.67226562 7.42359375 17.40703125 7.7690625 18.1640625 8.125 C18.82873535 8.43695312 19.4934082 8.74890625 20.17822266 9.0703125 C22 10 22 10 25 12 C19.073964 11.48127536 14.46180557 9.69218751 9.125 7.125 C8.35414062 6.77308594 7.58328125 6.42117188 6.7890625 6.05859375 C6.056875 5.71183594 5.3246875 5.36507812 4.5703125 5.0078125 C3.90789551 4.69473145 3.24547852 4.38165039 2.56298828 4.05908203 C1 3 1 3 0 0 Z "
    fill="#8869CF" transform="translate(67,800)"/>
  <path
    d="M0 0 C2.72426311 2.35277269 3.8141763 4.62496331 5 8 C3.71034824 9.37562854 2.37310707 10.70766393 1 12 C0.34 12 -0.32 12 -1 12 C-2.65 9.03 -4.3 6.06 -6 3 C-5.34 3 -4.68 3 -4 3 C-2.375 5 -2.375 5 -1 7 C-0.01 6.67 0.98 6.34 2 6 C1.34 4.02 0.68 2.04 0 0 Z "
    fill="#28246E" transform="translate(594,240)"/>
  <path
    d="M0 0 C5.96652354 1.57013777 10.82909025 4.75029782 16 8 C15.01 8.495 15.01 8.495 14 9 C13.0925 8.525625 12.185 8.05125 11.25 7.5625 C7.81158529 5.90941601 5.75350721 5.73189234 2 6 C1.34 4.02 0.68 2.04 0 0 Z "
    fill="#F1EEEF" transform="translate(340,664)"/>
  <path
    d="M0 0 C0.66 0.33 1.32 0.66 2 1 C0.95199219 1.61488281 0.95199219 1.61488281 -0.1171875 2.2421875 C-1.02726563 2.78101563 -1.93734375 3.31984375 -2.875 3.875 C-4.23238281 4.67550781 -4.23238281 4.67550781 -5.6171875 5.4921875 C-8.06603282 6.91975352 -8.06603282 6.91975352 -10 9 C-7.69 10.65 -5.38 12.3 -3 14 C-6.39593478 14 -7.06619881 13.47834052 -9.6875 11.5 C-10.31011719 11.0359375 -10.93273437 10.571875 -11.57421875 10.09375 C-12.27998047 9.55234375 -12.27998047 9.55234375 -13 9 C-12 6 -12 6 -9.34765625 4.359375 C-8.26355469 3.82828125 -7.17945313 3.2971875 -6.0625 2.75 C-4.98097656 2.20859375 -3.89945313 1.6671875 -2.78515625 1.109375 C-1.40650391 0.56023438 -1.40650391 0.56023438 0 0 Z "
    fill="#363572" transform="translate(607,544)"/>
  <path
    d="M0 0 C0.66 0.66 1.32 1.32 2 2 C0.59290434 3.48827426 -0.82606201 4.96533185 -2.25 6.4375 C-3.43335938 7.67306641 -3.43335938 7.67306641 -4.640625 8.93359375 C-6.90734717 10.91885207 -8.0671937 11.6300359 -11 12 C-7.49102731 7.81576108 -3.91939465 3.80411834 0 0 Z "
    fill="#A26EDB" transform="translate(46,39)"/>
  <path
    d="M0 0 C5.61 0 11.22 0 17 0 C17 0.66 17 1.32 17 2 C12.91721966 3.08318662 9.82121165 2.83473185 5.6875 2.0625 C4.61886719 1.86785156 3.55023437 1.67320312 2.44921875 1.47265625 C1.64097656 1.31667969 0.83273437 1.16070312 0 1 C0 0.67 0 0.34 0 0 Z "
    fill="#28256C" transform="translate(641,273)"/>
  <path
    d="M0 0 C0.67578125 1.75390625 0.67578125 1.75390625 1 4 C-0.14453125 5.96484375 -0.14453125 5.96484375 -1.8125 7.9375 C-4.16619647 10.85914179 -5.86632709 13.37224668 -7 17 C-8 14 -8 14 -7.29296875 12.0625 C-6.74576172 11.0415625 -6.74576172 11.0415625 -6.1875 10 C-5.83042969 9.319375 -5.47335937 8.63875 -5.10546875 7.9375 C-4.14192431 6.24874367 -3.07850549 4.61775824 -2 3 C-1.34 3 -0.68 3 0 3 C0 2.01 0 1.02 0 0 Z "
    fill="#EEECF0" transform="translate(536,222)"/>
  <path
    d="M0 0 C0.66 0.33 1.32 0.66 2 1 C2.74482287 3.67259973 3.40322078 6.29694119 4 9 C4.32953642 10.33427682 4.66173853 11.66790839 5 13 C4.34 13 3.68 13 3 13 C2.30093058 11.40084119 1.61610532 9.79544955 0.9375 8.1875 C0.55464844 7.29417969 0.17179688 6.40085937 -0.22265625 5.48046875 C-1 3 -1 3 0 0 Z "
    fill="#F1EFF1" transform="translate(615,299)"/>
  <path
    d="M0 0 C0.103125 0.598125 0.20625 1.19625 0.3125 1.8125 C1.08876455 4.28243264 2.07088921 5.32251235 4 7 C2.02 7.99 2.02 7.99 0 9 C-0.99 7.68 -1.98 6.36 -3 5 C-1.125 1.125 -1.125 1.125 0 0 Z "
    fill="#2A2871" transform="translate(620,243)"/>
  <path d="M0 0 C2.18975773 3.28463659 2.99806563 6.20696275 4 10 C2.02 10.99 2.02 10.99 0 12 C0 8.04 0 4.08 0 0 Z "
        fill="#F1EFEE" transform="translate(322,673)"/>
  <path
    d="M0 0 C0.33 0 0.66 0 1 0 C1.33 3.63 1.66 7.26 2 11 C0.68 10.01 -0.64 9.02 -2 8 C-1.125 1.125 -1.125 1.125 0 0 Z "
    fill="#323071" transform="translate(359,447)"/>
  <path
    d="M0 0 C0.93423645 3.01031744 1.04449911 3.86650268 0 7 C-1.9375 6.1875 -1.9375 6.1875 -4 5 C-4.33 4.01 -4.66 3.02 -5 2 C-4.360625 1.855625 -3.72125 1.71125 -3.0625 1.5625 C-1.02454854 1.18992819 -1.02454854 1.18992819 0 0 Z "
    fill="#F0EEF0" transform="translate(637,183)"/>
  <path
    d="M0 0 C0.33 0 0.66 0 1 0 C1.125 2.875 1.125 2.875 1 6 C0.34 6.66 -0.32 7.32 -1 8 C-1.69748583 9.31747324 -2.36959957 10.64914193 -3 12 C-3.88336837 9.5332355 -4.1312406 8.36140628 -3.22265625 5.859375 C-2.83980469 5.16328125 -2.45695312 4.4671875 -2.0625 3.75 C-1.68222656 3.04359375 -1.30195313 2.3371875 -0.91015625 1.609375 C-0.60980469 1.07828125 -0.30945313 0.5471875 0 0 Z "
    fill="#A779DD" transform="translate(20,72)"/>
  <path
    d="M0 0 C0 0.99 0 1.98 0 3 C-2.8125 4.125 -2.8125 4.125 -6 5 C-6.99 4.34 -7.98 3.68 -9 3 C-2.25 0 -2.25 0 0 0 Z "
    fill="#AD7DE0" transform="translate(86,15)"/>
  <path
    d="M0 0 C0.66 0.33 1.32 0.66 2 1 C0.68 4.3 -0.64 7.6 -2 11 C-2.66 10.67 -3.32 10.34 -4 10 C-3.29445932 6.33118845 -1.72264494 3.29549466 0 0 Z "
    fill="#EFEDEE" transform="translate(477,710)"/>
  <path
    d="M0 0 C0 0.99 0 1.98 0 3 C-1.32 3.33 -2.64 3.66 -4 4 C-4 4.66 -4 5.32 -4 6 C-4.99 6.33 -5.98 6.66 -7 7 C-4.60526316 0 -4.60526316 0 0 0 Z "
    fill="#322E72" transform="translate(536,761)"/>
  <path
    d="M0 0 C2.1953125 1.515625 2.1953125 1.515625 4 3 C2.37536158 3.05395478 0.75021459 3.09277195 -0.875 3.125 C-1.77992188 3.14820313 -2.68484375 3.17140625 -3.6171875 3.1953125 C-6 3 -6 3 -8 1 C-5.19084526 -0.40457737 -3.11189466 -0.24895157 0 0 Z "
    fill="#4E4A83" transform="translate(378,565)"/>
  <path
    d="M0 0 C0.33 0 0.66 0 1 0 C1.25 7.625 1.25 7.625 -1 11 C-1.66 9.02 -2.32 7.04 -3 5 C-2.01 5 -1.02 5 0 5 C0 3.35 0 1.7 0 0 Z "
    fill="#E9BE40" transform="translate(623,261)"/>
  <path
    d="M0 0 C0.66 0.33 1.32 0.66 2 1 C2 2.65 2 4.3 2 6 C-0.97 6 -3.94 6 -7 6 C-7 5.67 -7 5.34 -7 5 C-5.02 4.67 -3.04 4.34 -1 4 C-0.67 2.68 -0.34 1.36 0 0 Z "
    fill="#8767D1" transform="translate(206,815)"/>
  <path
    d="M0 0 C2.4375 0.8125 2.4375 0.8125 5 2 C5.33 2.99 5.66 3.98 6 5 C6.66 5.66 7.32 6.32 8 7 C5 7 5 7 2.3125 4.625 C0 2 0 2 0 0 Z "
    fill="#8869CF" transform="translate(37,776)"/>
  <path
    d="M0 0 C0.99 0.33 1.98 0.66 3 1 C1.35 2.65 -0.3 4.3 -2 6 C-2.99 5.67 -3.98 5.34 -5 5 C-3.35 3.35 -1.7 1.7 0 0 Z "
    fill="#F3F0ED" transform="translate(444,653)"/>
  <path
    d="M0 0 C-4.1795645 2.78637633 -6.14668677 1.79562512 -11 1 C-7.2297564 -1.56376565 -4.32597804 -0.83191885 0 0 Z "
    fill="#AF82E1" transform="translate(109,10)"/>
  <path
    d="M0 0 C2.64 0.33 5.28 0.66 8 1 C6 3 6 3 2.875 3.125 C1.451875 3.063125 1.451875 3.063125 0 3 C0 2.01 0 1.02 0 0 Z "
    fill="#AC7EE0" transform="translate(725,8)"/>
  <path d="M0 0 C-0.33 1.98 -0.66 3.96 -1 6 C-3 5 -3 5 -4 3 C-5.65 3 -7.3 3 -9 3 C-3.2 0 -3.2 0 0 0 Z " fill="#E9E7E8"
        transform="translate(548,622)"/>
  <path
    d="M0 0 C0.33 0.66 0.66 1.32 1 2 C1.66 2.33 2.32 2.66 3 3 C1.625 5.5 1.625 5.5 0 8 C-0.66 8 -1.32 8 -2 8 C-1.125 2.25 -1.125 2.25 0 0 Z "
    fill="#1E5671" transform="translate(211,603)"/>
  <path d="M0 0 C0.99 0.66 1.98 1.32 3 2 C0.02819057 3.89865603 -2.51460083 5.35455571 -6 6 C-4 4 -2 2 0 0 Z "
        fill="#AD7FDF" transform="translate(53,33)"/>
  <path
    d="M0 0 C0.33 0 0.66 0 1 0 C1.33 2.64 1.66 5.28 2 8 C1.01 8 0.02 8 -1 8 C-1.04241723 5.66705225 -1.04092937 3.33297433 -1 1 C-0.67 0.67 -0.34 0.34 0 0 Z "
    fill="#7956C8" transform="translate(5,695)"/>
  <path
    d="M0 0 C0.99 0.33 1.98 0.66 3 1 C2.34 3.31 1.68 5.62 1 8 C-0.74627478 5.38058783 -1.38722388 3.96175123 -2 1 C-1.34 0.67 -0.68 0.34 0 0 Z "
    fill="#EFEDEB" transform="translate(525,628)"/>
  <path
    d="M0 0 C0.99 0.495 0.99 0.495 2 1 C1.01 1.495 1.01 1.495 0 2 C0 1.34 0 0.68 0 0 Z M-1 2 C-0.34 2.33 0.32 2.66 1 3 C0.1875 4.9375 0.1875 4.9375 -1 7 C-1.99 7.33 -2.98 7.66 -4 8 C-2.125 3.125 -2.125 3.125 -1 2 Z "
    fill="#EEEBEB" transform="translate(495,586)"/>
  <path
    d="M0 0 C-1.20703125 1.51953125 -1.20703125 1.51953125 -3 3 C-5.26171875 3.07421875 -5.26171875 3.07421875 -7.6875 2.6875 C-8.89986328 2.50767578 -8.89986328 2.50767578 -10.13671875 2.32421875 C-10.75160156 2.21722656 -11.36648438 2.11023438 -12 2 C-12 1.67 -12 1.34 -12 1 C-7.95858806 0.36605303 -4.0934693 -0.12404452 0 0 Z "
    fill="#68B0A4" transform="translate(475,584)"/>
  <path
    d="M0 0 C4.1424367 1.38081223 5.32203099 3.59825558 8 7 C3.75177626 6.52797514 1.80010291 4.03344482 -1 1 C-0.67 0.67 -0.34 0.34 0 0 Z "
    fill="#F2F1F3" transform="translate(607,326)"/>
  <path d="M0 0 C4 1 4 1 4 1 Z " fill="#F8F5FB" transform="translate(147,2)"/>
  <path d="M0 0 C3 1 3 1 3 1 Z " fill="#FAF6FB" transform="translate(688,2)"/>
  <path d="M0 0 C2 1 2 1 2 1 Z " fill="#F8F6FA" transform="translate(715,4)"/>
  <path d="" fill="#FAF6FA" transform="translate(0,0)"/>
  <path d="" fill="#F9F6FB" transform="translate(0,0)"/>
  <path d="" fill="#F8F4F7" transform="translate(0,0)"/>
  <path d="" fill="#FAF6FE" transform="translate(0,0)"/>
  <path d="" fill="#F7F6F9" transform="translate(0,0)"/>
  <path d="" fill="#FBF6FC" transform="translate(0,0)"/>
  <path d="" fill="#FBF6FD" transform="translate(0,0)"/>
  <path d="" fill="#F9F5FC" transform="translate(0,0)"/>
  <path d="" fill="#FAF6FC" transform="translate(0,0)"/>
  <path d="" fill="#FAF6FF" transform="translate(0,0)"/>
  <path d="" fill="#F9F6FB" transform="translate(0,0)"/>
  <path d="" fill="#FAF6FD" transform="translate(0,0)"/>
  <path d="" fill="#F9F6FE" transform="translate(0,0)"/>
  <path d="" fill="#FCF6FF" transform="translate(0,0)"/>
  <path d="" fill="#F9F6FB" transform="translate(0,0)"/>
  <path d="" fill="#FCF6FD" transform="translate(0,0)"/>
  <path d="" fill="#F7F6FB" transform="translate(0,0)"/>
  <path d="" fill="#F9F6FB" transform="translate(0,0)"/>
  <path d="" fill="#F8F6FC" transform="translate(0,0)"/>
  <path d="" fill="#F7F4F7" transform="translate(0,0)"/>
  <path d="" fill="#F8F4F8" transform="translate(0,0)"/>
  <path d="" fill="#FCF6FA" transform="translate(0,0)"/>
  <path d="" fill="#FAF6FC" transform="translate(0,0)"/>
  <path d="" fill="#FDF6FD" transform="translate(0,0)"/>
  <path d="" fill="#FDFBF6" transform="translate(0,0)"/>
  <path d="" fill="#FCF5FF" transform="translate(0,0)"/>
  <path d="" fill="#F8F3F9" transform="translate(0,0)"/>
  <path d="" fill="#FCF6FE" transform="translate(0,0)"/>
  <path d="" fill="#F9F6FA" transform="translate(0,0)"/>
  <path d="" fill="#F8F6FB" transform="translate(0,0)"/>
  <path d="" fill="#F9F6F8" transform="translate(0,0)"/>
  <path d="" fill="#F8F6FA" transform="translate(0,0)"/>
  <path d="" fill="#FAF6FC" transform="translate(0,0)"/>
  <path d="" fill="#F8F5FA" transform="translate(0,0)"/>
  <path d="" fill="#F9F6FA" transform="translate(0,0)"/>
</svg>
